<?xml version="1.0" standalone="no"?>
<!DOCTYPE svg PUBLIC "-//W3C//DTD SVG 20010904//EN"
 "http://www.w3.org/TR/2001/REC-SVG-20010904/DTD/svg10.dtd">
<svg version="1.0" xmlns="http://www.w3.org/2000/svg"
 width="328.000000pt" height="328.000000pt" viewBox="0 0 328.000000 328.000000"
 preserveAspectRatio="xMidYMid meet">
<metadata>
Created by potrace 1.11, written by Peter Selinger 2001-2013
</metadata>
<g transform="translate(0.000000,328.000000) scale(0.100000,-0.100000)"
fill="#000000" stroke="none">
<path d="M1100 3229 c-218 -11 -634 -38 -687 -45 l-43 -6 0 -747 c0 -878 5
-938 87 -1196 90 -280 217 -479 449 -705 188 -183 376 -320 557 -405 143 -68
172 -73 248 -45 219 79 479 260 705 492 220 225 345 438 429 734 59 210 58
191 62 1065 l4 807 -48 6 c-67 8 -467 34 -718 46 -240 11 -801 11 -1045 -1z
m1275 -84 c149 -9 311 -19 360 -23 l90 -7 0 -785 c0 -783 0 -785 -23 -890 -49
-224 -145 -447 -263 -615 -118 -166 -373 -404 -574 -533 -80 -52 -221 -124
-284 -147 -41 -14 -46 -14 -110 11 -215 85 -514 304 -707 519 -194 216 -318
459 -385 760 -22 98 -23 114 -26 888 -3 638 -1 788 9 792 16 5 471 33 728 45
256 12 861 4 1185 -15z"/>
<path d="M1641 2639 c-77 -12 -199 -58 -266 -100 -28 -17 -88 -70 -135 -118
-143 -146 -200 -285 -200 -493 0 -214 63 -371 205 -513 91 -91 175 -144 290
-182 71 -24 95 -27 220 -27 125 0 148 3 220 27 91 31 161 69 223 122 l42 37 0
229 0 229 -45 0 -45 0 0 -215 0 -215 -54 -35 c-152 -102 -371 -126 -548 -62
-100 36 -156 73 -238 156 -82 83 -139 178 -165 277 -22 80 -22 250 0 333 58
223 262 413 488 456 100 19 159 19 253 0 95 -20 151 -44 231 -100 68 -48 79
-48 116 -7 17 19 16 21 -45 67 -148 113 -356 163 -547 134z"/>
</g>
</svg>
