<?xml version="1.0" encoding="UTF-8" standalone="no"?>
<!DOCTYPE svg PUBLIC "-//W3C//DTD SVG 1.1//EN"
 "http://www.w3.org/Graphics/SVG/1.1/DTD/svg11.dtd">
<!-- Generated by graphviz version 2.38.0 (20140413.2041)
 -->
<!-- Title: controllers_diagram Pages: 1 -->
<svg width="875pt" height="939pt"
 viewBox="0.00 0.00 874.70 939.00" xmlns="http://www.w3.org/2000/svg" xmlns:xlink="http://www.w3.org/1999/xlink">
<g id="graph0" class="graph" transform="scale(1 1) rotate(0) translate(402.821 536.5)">
<title>controllers_diagram</title>
<polygon fill="none" stroke="none" points="-402.821,402.5 -402.821,-536.5 471.883,-536.5 471.883,402.5 -402.821,402.5"/>
<!-- _diagram_info -->
<g id="node1" class="node"><title>_diagram_info</title>
<text text-anchor="start" x="7.55029" y="187.9" font-family="Times,serif" font-size="13.00">Controllers diagram</text>
<text text-anchor="start" x="7.55029" y="200.9" font-family="Times,serif" font-size="13.00">Date: Feb 18 2016 &#45; 19:40</text>
<text text-anchor="start" x="7.55029" y="213.9" font-family="Times,serif" font-size="13.00">Migration version: 20160211054712</text>
<text text-anchor="start" x="7.55029" y="226.9" font-family="Times,serif" font-size="13.00">Generated by RailRoady 1.4.2</text>
<text text-anchor="start" x="7.55029" y="239.9" font-family="Times,serif" font-size="13.00">http://railroady.prestonlee.com</text>
</g>
<!-- ApplicationController -->
<g id="node2" class="node"><title>ApplicationController</title>
<path fill="none" stroke="black" d="M-386.821,-400C-386.821,-400 -271.179,-400 -271.179,-400 -265.179,-400 -259.179,-406 -259.179,-412 -259.179,-412 -259.179,-520 -259.179,-520 -259.179,-526 -265.179,-532 -271.179,-532 -271.179,-532 -386.821,-532 -386.821,-532 -392.821,-532 -398.821,-526 -398.821,-520 -398.821,-520 -398.821,-412 -398.821,-412 -398.821,-406 -392.821,-400 -386.821,-400"/>
<text text-anchor="middle" x="-329" y="-516.8" font-family="Times,serif" font-size="14.00">ApplicationController</text>
<polyline fill="none" stroke="black" points="-398.821,-510 -259.179,-510 "/>
<text text-anchor="start" x="-390.821" y="-494.8" font-family="Times,serif" font-size="14.00">success</text>
<polyline fill="none" stroke="black" points="-398.821,-488 -259.179,-488 "/>
<polyline fill="none" stroke="black" points="-398.821,-464 -259.179,-464 "/>
<text text-anchor="start" x="-390.821" y="-448.8" font-family="Times,serif" font-size="14.00">_layout</text>
<text text-anchor="start" x="-390.821" y="-434.8" font-family="Times,serif" font-size="14.00">current_user</text>
<text text-anchor="start" x="-390.821" y="-420.8" font-family="Times,serif" font-size="14.00">logged_in?</text>
<text text-anchor="start" x="-390.821" y="-406.8" font-family="Times,serif" font-size="14.00">require_user</text>
</g>
<!-- GameWeeksController -->
<g id="node3" class="node"><title>GameWeeksController</title>
<path fill="none" stroke="black" d="M145.026,132C145.026,132 264.974,132 264.974,132 270.974,132 276.974,126 276.974,120 276.974,120 276.974,-126 276.974,-126 276.974,-132 270.974,-138 264.974,-138 264.974,-138 145.026,-138 145.026,-138 139.026,-138 133.026,-132 133.026,-126 133.026,-126 133.026,120 133.026,120 133.026,126 139.026,132 145.026,132"/>
<text text-anchor="middle" x="205" y="-122.8" font-family="Times,serif" font-size="14.00">GameWeeksController</text>
<polyline fill="none" stroke="black" points="133.026,-116 276.974,-116 "/>
<text text-anchor="start" x="141.026" y="-100.8" font-family="Times,serif" font-size="14.00">create</text>
<text text-anchor="start" x="141.026" y="-86.8" font-family="Times,serif" font-size="14.00">index</text>
<text text-anchor="start" x="141.026" y="-72.8" font-family="Times,serif" font-size="14.00">new</text>
<polyline fill="none" stroke="black" points="133.026,-66 276.974,-66 "/>
<text text-anchor="start" x="141.026" y="-50.8" font-family="Times,serif" font-size="14.00">collection_path</text>
<text text-anchor="start" x="141.026" y="-36.8" font-family="Times,serif" font-size="14.00">collection_url</text>
<text text-anchor="start" x="141.026" y="-22.8" font-family="Times,serif" font-size="14.00">edit_resource_path</text>
<text text-anchor="start" x="141.026" y="-8.8" font-family="Times,serif" font-size="14.00">edit_resource_url</text>
<text text-anchor="start" x="141.026" y="5.2" font-family="Times,serif" font-size="14.00">new_resource_path</text>
<text text-anchor="start" x="141.026" y="19.2" font-family="Times,serif" font-size="14.00">new_resource_url</text>
<text text-anchor="start" x="141.026" y="33.2" font-family="Times,serif" font-size="14.00">resource_path</text>
<text text-anchor="start" x="141.026" y="47.2" font-family="Times,serif" font-size="14.00">resource_url</text>
<polyline fill="none" stroke="black" points="133.026,54 276.974,54 "/>
<text text-anchor="start" x="141.026" y="69.2" font-family="Times,serif" font-size="14.00">_layout</text>
<text text-anchor="start" x="141.026" y="83.2" font-family="Times,serif" font-size="14.00">game_week_params</text>
<text text-anchor="start" x="141.026" y="97.2" font-family="Times,serif" font-size="14.00">set_league</text>
<text text-anchor="start" x="141.026" y="111.2" font-family="Times,serif" font-size="14.00">set_player</text>
<text text-anchor="start" x="141.026" y="125.2" font-family="Times,serif" font-size="14.00">set_team</text>
</g>
<!-- GamesController -->
<g id="node4" class="node"><title>GamesController</title>
<path fill="none" stroke="black" d="M-7.4209,-153C-7.4209,-153 93.4209,-153 93.4209,-153 99.4209,-153 105.421,-159 105.421,-165 105.421,-165 105.421,-369 105.421,-369 105.421,-375 99.4209,-381 93.4209,-381 93.4209,-381 -7.4209,-381 -7.4209,-381 -13.4209,-381 -19.4209,-375 -19.4209,-369 -19.4209,-369 -19.4209,-165 -19.4209,-165 -19.4209,-159 -13.4209,-153 -7.4209,-153"/>
<text text-anchor="middle" x="43" y="-365.8" font-family="Times,serif" font-size="14.00">GamesController</text>
<polyline fill="none" stroke="black" points="-19.4209,-359 105.421,-359 "/>
<text text-anchor="start" x="-11.4209" y="-343.8" font-family="Times,serif" font-size="14.00">create</text>
<text text-anchor="start" x="-11.4209" y="-329.8" font-family="Times,serif" font-size="14.00">index</text>
<text text-anchor="start" x="-11.4209" y="-315.8" font-family="Times,serif" font-size="14.00">new</text>
<polyline fill="none" stroke="black" points="-19.4209,-309 105.421,-309 "/>
<text text-anchor="start" x="-11.4209" y="-293.8" font-family="Times,serif" font-size="14.00">collection_path</text>
<text text-anchor="start" x="-11.4209" y="-279.8" font-family="Times,serif" font-size="14.00">collection_url</text>
<text text-anchor="start" x="-11.4209" y="-265.8" font-family="Times,serif" font-size="14.00">edit_resource_path</text>
<text text-anchor="start" x="-11.4209" y="-251.8" font-family="Times,serif" font-size="14.00">edit_resource_url</text>
<text text-anchor="start" x="-11.4209" y="-237.8" font-family="Times,serif" font-size="14.00">new_resource_path</text>
<text text-anchor="start" x="-11.4209" y="-223.8" font-family="Times,serif" font-size="14.00">new_resource_url</text>
<text text-anchor="start" x="-11.4209" y="-209.8" font-family="Times,serif" font-size="14.00">resource_path</text>
<text text-anchor="start" x="-11.4209" y="-195.8" font-family="Times,serif" font-size="14.00">resource_url</text>
<polyline fill="none" stroke="black" points="-19.4209,-189 105.421,-189 "/>
<text text-anchor="start" x="-11.4209" y="-173.8" font-family="Times,serif" font-size="14.00">_layout</text>
<text text-anchor="start" x="-11.4209" y="-159.8" font-family="Times,serif" font-size="14.00">game_params</text>
</g>
<!-- LeaguesController -->
<g id="node5" class="node"><title>LeaguesController</title>
<path fill="none" stroke="black" d="M182.579,-172C182.579,-172 283.421,-172 283.421,-172 289.421,-172 295.421,-178 295.421,-184 295.421,-184 295.421,-388 295.421,-388 295.421,-394 289.421,-400 283.421,-400 283.421,-400 182.579,-400 182.579,-400 176.579,-400 170.579,-394 170.579,-388 170.579,-388 170.579,-184 170.579,-184 170.579,-178 176.579,-172 182.579,-172"/>
<text text-anchor="middle" x="233" y="-384.8" font-family="Times,serif" font-size="14.00">LeaguesController</text>
<polyline fill="none" stroke="black" points="170.579,-378 295.421,-378 "/>
<text text-anchor="start" x="178.579" y="-362.8" font-family="Times,serif" font-size="14.00">create</text>
<text text-anchor="start" x="178.579" y="-348.8" font-family="Times,serif" font-size="14.00">index</text>
<text text-anchor="start" x="178.579" y="-334.8" font-family="Times,serif" font-size="14.00">new</text>
<polyline fill="none" stroke="black" points="170.579,-328 295.421,-328 "/>
<text text-anchor="start" x="178.579" y="-312.8" font-family="Times,serif" font-size="14.00">collection_path</text>
<text text-anchor="start" x="178.579" y="-298.8" font-family="Times,serif" font-size="14.00">collection_url</text>
<text text-anchor="start" x="178.579" y="-284.8" font-family="Times,serif" font-size="14.00">edit_resource_path</text>
<text text-anchor="start" x="178.579" y="-270.8" font-family="Times,serif" font-size="14.00">edit_resource_url</text>
<text text-anchor="start" x="178.579" y="-256.8" font-family="Times,serif" font-size="14.00">new_resource_path</text>
<text text-anchor="start" x="178.579" y="-242.8" font-family="Times,serif" font-size="14.00">new_resource_url</text>
<text text-anchor="start" x="178.579" y="-228.8" font-family="Times,serif" font-size="14.00">resource_path</text>
<text text-anchor="start" x="178.579" y="-214.8" font-family="Times,serif" font-size="14.00">resource_url</text>
<polyline fill="none" stroke="black" points="170.579,-208 295.421,-208 "/>
<text text-anchor="start" x="178.579" y="-192.8" font-family="Times,serif" font-size="14.00">_layout</text>
<text text-anchor="start" x="178.579" y="-178.8" font-family="Times,serif" font-size="14.00">league_params</text>
</g>
<!-- PasswordResetsController -->
<g id="node6" class="node"><title>PasswordResetsController</title>
<path fill="none" stroke="black" d="M316.117,75C316.117,75 455.883,75 455.883,75 461.883,75 467.883,69 467.883,63 467.883,63 467.883,-59 467.883,-59 467.883,-65 461.883,-71 455.883,-71 455.883,-71 316.117,-71 316.117,-71 310.117,-71 304.117,-65 304.117,-59 304.117,-59 304.117,63 304.117,63 304.117,69 310.117,75 316.117,75"/>
<text text-anchor="middle" x="386" y="-55.8" font-family="Times,serif" font-size="14.00">PasswordResetsController</text>
<polyline fill="none" stroke="black" points="304.117,-49 467.883,-49 "/>
<text text-anchor="start" x="312.117" y="-33.8" font-family="Times,serif" font-size="14.00">create</text>
<text text-anchor="start" x="312.117" y="-19.8" font-family="Times,serif" font-size="14.00">edit</text>
<text text-anchor="start" x="312.117" y="-5.8" font-family="Times,serif" font-size="14.00">new</text>
<text text-anchor="start" x="312.117" y="8.2" font-family="Times,serif" font-size="14.00">update</text>
<polyline fill="none" stroke="black" points="304.117,15 467.883,15 "/>
<polyline fill="none" stroke="black" points="304.117,39 467.883,39 "/>
<text text-anchor="start" x="312.117" y="54.2" font-family="Times,serif" font-size="14.00">_layout</text>
<text text-anchor="start" x="312.117" y="68.2" font-family="Times,serif" font-size="14.00">user_params</text>
</g>
<!-- PlayerGameWeeksController -->
<g id="node7" class="node"><title>PlayerGameWeeksController</title>
<path fill="none" stroke="black" d="M-215.857,-229C-215.857,-229 -60.1431,-229 -60.1431,-229 -54.1431,-229 -48.1431,-235 -48.1431,-241 -48.1431,-241 -48.1431,-363 -48.1431,-363 -48.1431,-369 -54.1431,-375 -60.1431,-375 -60.1431,-375 -215.857,-375 -215.857,-375 -221.857,-375 -227.857,-369 -227.857,-363 -227.857,-363 -227.857,-241 -227.857,-241 -227.857,-235 -221.857,-229 -215.857,-229"/>
<text text-anchor="middle" x="-138" y="-359.8" font-family="Times,serif" font-size="14.00">PlayerGameWeeksController</text>
<polyline fill="none" stroke="black" points="-227.857,-353 -48.1431,-353 "/>
<text text-anchor="start" x="-219.857" y="-337.8" font-family="Times,serif" font-size="14.00">create</text>
<text text-anchor="start" x="-219.857" y="-323.8" font-family="Times,serif" font-size="14.00">new</text>
<polyline fill="none" stroke="black" points="-227.857,-317 -48.1431,-317 "/>
<polyline fill="none" stroke="black" points="-227.857,-293 -48.1431,-293 "/>
<text text-anchor="start" x="-219.857" y="-277.8" font-family="Times,serif" font-size="14.00">_layout</text>
<text text-anchor="start" x="-219.857" y="-263.8" font-family="Times,serif" font-size="14.00">player_game_week_params</text>
<text text-anchor="start" x="-219.857" y="-249.8" font-family="Times,serif" font-size="14.00">set_game_week</text>
<text text-anchor="start" x="-219.857" y="-235.8" font-family="Times,serif" font-size="14.00">set_player</text>
</g>
<!-- PlayersController -->
<g id="node8" class="node"><title>PlayersController</title>
<path fill="none" stroke="black" d="M-368.379,-210C-368.379,-210 -277.621,-210 -277.621,-210 -271.621,-210 -265.621,-216 -265.621,-222 -265.621,-222 -265.621,-344 -265.621,-344 -265.621,-350 -271.621,-356 -277.621,-356 -277.621,-356 -368.379,-356 -368.379,-356 -374.379,-356 -380.379,-350 -380.379,-344 -380.379,-344 -380.379,-222 -380.379,-222 -380.379,-216 -374.379,-210 -368.379,-210"/>
<text text-anchor="middle" x="-323" y="-340.8" font-family="Times,serif" font-size="14.00">PlayersController</text>
<polyline fill="none" stroke="black" points="-380.379,-334 -265.621,-334 "/>
<text text-anchor="start" x="-372.379" y="-318.8" font-family="Times,serif" font-size="14.00">create</text>
<text text-anchor="start" x="-372.379" y="-304.8" font-family="Times,serif" font-size="14.00">index</text>
<text text-anchor="start" x="-372.379" y="-290.8" font-family="Times,serif" font-size="14.00">new</text>
<polyline fill="none" stroke="black" points="-380.379,-284 -265.621,-284 "/>
<polyline fill="none" stroke="black" points="-380.379,-260 -265.621,-260 "/>
<text text-anchor="start" x="-372.379" y="-244.8" font-family="Times,serif" font-size="14.00">_layout</text>
<text text-anchor="start" x="-372.379" y="-230.8" font-family="Times,serif" font-size="14.00">player_params</text>
<text text-anchor="start" x="-372.379" y="-216.8" font-family="Times,serif" font-size="14.00">set_player</text>
</g>
<!-- SeasonsController -->
<g id="node9" class="node"><title>SeasonsController</title>
<path fill="none" stroke="black" d="M334.579,-115C334.579,-115 435.421,-115 435.421,-115 441.421,-115 447.421,-121 447.421,-127 447.421,-127 447.421,-291 447.421,-291 447.421,-297 441.421,-303 435.421,-303 435.421,-303 334.579,-303 334.579,-303 328.579,-303 322.579,-297 322.579,-291 322.579,-291 322.579,-127 322.579,-127 322.579,-121 328.579,-115 334.579,-115"/>
<text text-anchor="middle" x="385" y="-287.8" font-family="Times,serif" font-size="14.00">SeasonsController</text>
<polyline fill="none" stroke="black" points="322.579,-281 447.421,-281 "/>
<polyline fill="none" stroke="black" points="322.579,-257 447.421,-257 "/>
<text text-anchor="start" x="330.579" y="-241.8" font-family="Times,serif" font-size="14.00">collection_path</text>
<text text-anchor="start" x="330.579" y="-227.8" font-family="Times,serif" font-size="14.00">collection_url</text>
<text text-anchor="start" x="330.579" y="-213.8" font-family="Times,serif" font-size="14.00">edit_resource_path</text>
<text text-anchor="start" x="330.579" y="-199.8" font-family="Times,serif" font-size="14.00">edit_resource_url</text>
<text text-anchor="start" x="330.579" y="-185.8" font-family="Times,serif" font-size="14.00">new_resource_path</text>
<text text-anchor="start" x="330.579" y="-171.8" font-family="Times,serif" font-size="14.00">new_resource_url</text>
<text text-anchor="start" x="330.579" y="-157.8" font-family="Times,serif" font-size="14.00">resource_path</text>
<text text-anchor="start" x="330.579" y="-143.8" font-family="Times,serif" font-size="14.00">resource_url</text>
<polyline fill="none" stroke="black" points="322.579,-137 447.421,-137 "/>
<text text-anchor="start" x="330.579" y="-121.8" font-family="Times,serif" font-size="14.00">_layout</text>
</g>
<!-- TeamPlayersController -->
<g id="node10" class="node"><title>TeamPlayersController</title>
<path fill="none" stroke="black" d="M-272.825,-1C-272.825,-1 -151.175,-1 -151.175,-1 -145.175,-1 -139.175,-7 -139.175,-13 -139.175,-13 -139.175,-163 -139.175,-163 -139.175,-169 -145.175,-175 -151.175,-175 -151.175,-175 -272.825,-175 -272.825,-175 -278.825,-175 -284.825,-169 -284.825,-163 -284.825,-163 -284.825,-13 -284.825,-13 -284.825,-7 -278.825,-1 -272.825,-1"/>
<text text-anchor="middle" x="-212" y="-159.8" font-family="Times,serif" font-size="14.00">TeamPlayersController</text>
<polyline fill="none" stroke="black" points="-284.825,-153 -139.175,-153 "/>
<text text-anchor="start" x="-276.825" y="-137.8" font-family="Times,serif" font-size="14.00">create</text>
<text text-anchor="start" x="-276.825" y="-123.8" font-family="Times,serif" font-size="14.00">destroy</text>
<text text-anchor="start" x="-276.825" y="-109.8" font-family="Times,serif" font-size="14.00">new</text>
<text text-anchor="start" x="-276.825" y="-95.8" font-family="Times,serif" font-size="14.00">update_first_team</text>
<polyline fill="none" stroke="black" points="-284.825,-89 -139.175,-89 "/>
<polyline fill="none" stroke="black" points="-284.825,-65 -139.175,-65 "/>
<text text-anchor="start" x="-276.825" y="-49.8" font-family="Times,serif" font-size="14.00">_layout</text>
<text text-anchor="start" x="-276.825" y="-35.8" font-family="Times,serif" font-size="14.00">set_team</text>
<text text-anchor="start" x="-276.825" y="-21.8" font-family="Times,serif" font-size="14.00">set_team_player</text>
<text text-anchor="start" x="-276.825" y="-7.8" font-family="Times,serif" font-size="14.00">team_player_params</text>
</g>
<!-- TeamsController -->
<g id="node11" class="node"><title>TeamsController</title>
<path fill="none" stroke="black" d="M-234.942,246C-234.942,246 -149.058,246 -149.058,246 -143.058,246 -137.058,240 -137.058,234 -137.058,234 -137.058,56 -137.058,56 -137.058,50 -143.058,44 -149.058,44 -149.058,44 -234.942,44 -234.942,44 -240.942,44 -246.942,50 -246.942,56 -246.942,56 -246.942,234 -246.942,234 -246.942,240 -240.942,246 -234.942,246"/>
<text text-anchor="middle" x="-192" y="59.2" font-family="Times,serif" font-size="14.00">TeamsController</text>
<polyline fill="none" stroke="black" points="-246.942,66 -137.058,66 "/>
<text text-anchor="start" x="-238.942" y="81.2" font-family="Times,serif" font-size="14.00">create</text>
<text text-anchor="start" x="-238.942" y="95.2" font-family="Times,serif" font-size="14.00">destroy</text>
<text text-anchor="start" x="-238.942" y="109.2" font-family="Times,serif" font-size="14.00">edit</text>
<text text-anchor="start" x="-238.942" y="123.2" font-family="Times,serif" font-size="14.00">index</text>
<text text-anchor="start" x="-238.942" y="137.2" font-family="Times,serif" font-size="14.00">new</text>
<text text-anchor="start" x="-238.942" y="151.2" font-family="Times,serif" font-size="14.00">show</text>
<text text-anchor="start" x="-238.942" y="165.2" font-family="Times,serif" font-size="14.00">update</text>
<polyline fill="none" stroke="black" points="-246.942,172 -137.058,172 "/>
<polyline fill="none" stroke="black" points="-246.942,196 -137.058,196 "/>
<text text-anchor="start" x="-238.942" y="211.2" font-family="Times,serif" font-size="14.00">_layout</text>
<text text-anchor="start" x="-238.942" y="225.2" font-family="Times,serif" font-size="14.00">set_team</text>
<text text-anchor="start" x="-238.942" y="239.2" font-family="Times,serif" font-size="14.00">team_params</text>
</g>
<!-- TransferItemsController -->
<g id="node12" class="node"><title>TransferItemsController</title>
<path fill="none" stroke="black" d="M-83.3071,132C-83.3071,132 81.3071,132 81.3071,132 87.3071,132 93.3071,126 93.3071,120 93.3071,120 93.3071,-100 93.3071,-100 93.3071,-106 87.3071,-112 81.3071,-112 81.3071,-112 -83.3071,-112 -83.3071,-112 -89.3071,-112 -95.3071,-106 -95.3071,-100 -95.3071,-100 -95.3071,120 -95.3071,120 -95.3071,126 -89.3071,132 -83.3071,132"/>
<text text-anchor="middle" x="-1" y="-96.8" font-family="Times,serif" font-size="14.00">TransferItemsController</text>
<polyline fill="none" stroke="black" points="-95.3071,-90 93.3071,-90 "/>
<text text-anchor="start" x="-87.3071" y="-74.8" font-family="Times,serif" font-size="14.00">create</text>
<text text-anchor="start" x="-87.3071" y="-60.8" font-family="Times,serif" font-size="14.00">destroy</text>
<text text-anchor="start" x="-87.3071" y="-46.8" font-family="Times,serif" font-size="14.00">edit</text>
<text text-anchor="start" x="-87.3071" y="-32.8" font-family="Times,serif" font-size="14.00">new</text>
<text text-anchor="start" x="-87.3071" y="-18.8" font-family="Times,serif" font-size="14.00">update</text>
<polyline fill="none" stroke="black" points="-95.3071,-12 93.3071,-12 "/>
<polyline fill="none" stroke="black" points="-95.3071,12 93.3071,12 "/>
<text text-anchor="start" x="-87.3071" y="27.2" font-family="Times,serif" font-size="14.00">_layout</text>
<text text-anchor="start" x="-87.3071" y="41.2" font-family="Times,serif" font-size="14.00">require_permission_to_change</text>
<text text-anchor="start" x="-87.3071" y="55.2" font-family="Times,serif" font-size="14.00">require_permission_to_create</text>
<text text-anchor="start" x="-87.3071" y="69.2" font-family="Times,serif" font-size="14.00">set_league</text>
<text text-anchor="start" x="-87.3071" y="83.2" font-family="Times,serif" font-size="14.00">set_transfer</text>
<text text-anchor="start" x="-87.3071" y="97.2" font-family="Times,serif" font-size="14.00">set_transfer_item</text>
<text text-anchor="start" x="-87.3071" y="111.2" font-family="Times,serif" font-size="14.00">transfer_item_params</text>
<text text-anchor="start" x="-87.3071" y="125.2" font-family="Times,serif" font-size="14.00">update_transfer_status</text>
</g>
<!-- TransfersController -->
<g id="node13" class="node"><title>TransfersController</title>
<path fill="none" stroke="black" d="M316.039,303C316.039,303 417.961,303 417.961,303 423.961,303 429.961,297 429.961,291 429.961,291 429.961,127 429.961,127 429.961,121 423.961,115 417.961,115 417.961,115 316.039,115 316.039,115 310.039,115 304.039,121 304.039,127 304.039,127 304.039,291 304.039,291 304.039,297 310.039,303 316.039,303"/>
<text text-anchor="middle" x="367" y="130.2" font-family="Times,serif" font-size="14.00">TransfersController</text>
<polyline fill="none" stroke="black" points="304.039,137 429.961,137 "/>
<text text-anchor="start" x="312.039" y="152.2" font-family="Times,serif" font-size="14.00">change_response</text>
<text text-anchor="start" x="312.039" y="166.2" font-family="Times,serif" font-size="14.00">create</text>
<text text-anchor="start" x="312.039" y="180.2" font-family="Times,serif" font-size="14.00">destroy</text>
<text text-anchor="start" x="312.039" y="194.2" font-family="Times,serif" font-size="14.00">index</text>
<text text-anchor="start" x="312.039" y="208.2" font-family="Times,serif" font-size="14.00">new</text>
<polyline fill="none" stroke="black" points="304.039,215 429.961,215 "/>
<polyline fill="none" stroke="black" points="304.039,239 429.961,239 "/>
<text text-anchor="start" x="312.039" y="254.2" font-family="Times,serif" font-size="14.00">_layout</text>
<text text-anchor="start" x="312.039" y="268.2" font-family="Times,serif" font-size="14.00">set_league</text>
<text text-anchor="start" x="312.039" y="282.2" font-family="Times,serif" font-size="14.00">set_transfer</text>
<text text-anchor="start" x="312.039" y="296.2" font-family="Times,serif" font-size="14.00">transfer_params</text>
</g>
<!-- UserSessionsController -->
<g id="node14" class="node"><title>UserSessionsController</title>
<path fill="none" stroke="black" d="M11.8931,398C11.8931,398 136.107,398 136.107,398 142.107,398 148.107,392 148.107,386 148.107,386 148.107,292 148.107,292 148.107,286 142.107,280 136.107,280 136.107,280 11.8931,280 11.8931,280 5.89307,280 -0.106934,286 -0.106934,292 -0.106934,292 -0.106934,386 -0.106934,386 -0.106934,392 5.89307,398 11.8931,398"/>
<text text-anchor="middle" x="74" y="295.2" font-family="Times,serif" font-size="14.00">UserSessionsController</text>
<polyline fill="none" stroke="black" points="-0.106934,302 148.107,302 "/>
<text text-anchor="start" x="7.89307" y="317.2" font-family="Times,serif" font-size="14.00">create</text>
<text text-anchor="start" x="7.89307" y="331.2" font-family="Times,serif" font-size="14.00">destroy</text>
<text text-anchor="start" x="7.89307" y="345.2" font-family="Times,serif" font-size="14.00">new</text>
<polyline fill="none" stroke="black" points="-0.106934,352 148.107,352 "/>
<polyline fill="none" stroke="black" points="-0.106934,376 148.107,376 "/>
<text text-anchor="start" x="7.89307" y="391.2" font-family="Times,serif" font-size="14.00">_layout</text>
</g>
<!-- UsersController -->
<g id="node15" class="node"><title>UsersController</title>
<path fill="none" stroke="black" d="M354.286,-343C354.286,-343 435.714,-343 435.714,-343 441.714,-343 447.714,-349 447.714,-355 447.714,-355 447.714,-519 447.714,-519 447.714,-525 441.714,-531 435.714,-531 435.714,-531 354.286,-531 354.286,-531 348.286,-531 342.286,-525 342.286,-519 342.286,-519 342.286,-355 342.286,-355 342.286,-349 348.286,-343 354.286,-343"/>
<text text-anchor="middle" x="395" y="-515.8" font-family="Times,serif" font-size="14.00">UsersController</text>
<polyline fill="none" stroke="black" points="342.286,-509 447.714,-509 "/>
<text text-anchor="start" x="350.286" y="-493.8" font-family="Times,serif" font-size="14.00">create</text>
<text text-anchor="start" x="350.286" y="-479.8" font-family="Times,serif" font-size="14.00">destroy</text>
<text text-anchor="start" x="350.286" y="-465.8" font-family="Times,serif" font-size="14.00">edit</text>
<text text-anchor="start" x="350.286" y="-451.8" font-family="Times,serif" font-size="14.00">index</text>
<text text-anchor="start" x="350.286" y="-437.8" font-family="Times,serif" font-size="14.00">new</text>
<text text-anchor="start" x="350.286" y="-423.8" font-family="Times,serif" font-size="14.00">update</text>
<polyline fill="none" stroke="black" points="342.286,-417 447.714,-417 "/>
<polyline fill="none" stroke="black" points="342.286,-393 447.714,-393 "/>
<text text-anchor="start" x="350.286" y="-377.8" font-family="Times,serif" font-size="14.00">_layout</text>
<text text-anchor="start" x="350.286" y="-363.8" font-family="Times,serif" font-size="14.00">set_user</text>
<text text-anchor="start" x="350.286" y="-349.8" font-family="Times,serif" font-size="14.00">user_params</text>
</g>
</g>
</svg>
