<?xml version="1.0" encoding="UTF-8" standalone="no"?>
<!DOCTYPE svg PUBLIC "-//W3C//DTD SVG 1.1//EN"
 "http://www.w3.org/Graphics/SVG/1.1/DTD/svg11.dtd">
<!-- Generated by graphviz version 2.38.0 (20140413.2041)
 -->
<!-- Title: models_diagram Pages: 1 -->
<svg width="847pt" height="386pt"
 viewBox="0.00 0.00 846.66 386.00" xmlns="http://www.w3.org/2000/svg" xmlns:xlink="http://www.w3.org/1999/xlink">
<g id="graph0" class="graph" transform="scale(1 1) rotate(0) translate(4 382)">
<title>models_diagram</title>
<polygon fill="none" stroke="none" points="-4,4 -4,-382 842.661,-382 842.661,4 -4,4"/>
<!-- _diagram_info -->
<g id="node1" class="node"><title>_diagram_info</title>
<text text-anchor="start" x="8" y="-363.6" font-family="Times,serif" font-size="13.00">Models diagram</text>
<text text-anchor="start" x="8" y="-350.6" font-family="Times,serif" font-size="13.00">Date: Feb 18 2016 &#45; 19:40</text>
<text text-anchor="start" x="8" y="-337.6" font-family="Times,serif" font-size="13.00">Migration version: 20160211054712</text>
<text text-anchor="start" x="8" y="-324.6" font-family="Times,serif" font-size="13.00">Generated by RailRoady 1.4.2</text>
<text text-anchor="start" x="8" y="-311.6" font-family="Times,serif" font-size="13.00">http://railroady.prestonlee.com</text>
</g>
<!-- AdminUser -->
<g id="node2" class="node"><title>AdminUser</title>
<ellipse fill="none" stroke="black" cx="276.45" cy="-341.5" rx="51.2415" ry="18"/>
<text text-anchor="middle" x="276.45" y="-337.3" font-family="Times,serif" font-size="14.00">AdminUser</text>
</g>
<!-- Competition -->
<g id="node3" class="node"><title>Competition</title>
<ellipse fill="none" stroke="black" cx="400.45" cy="-341.5" rx="54.1489" ry="18"/>
<text text-anchor="middle" x="400.45" y="-337.3" font-family="Times,serif" font-size="14.00">Competition</text>
</g>
<!-- League -->
<g id="node7" class="node"><title>League</title>
<ellipse fill="none" stroke="black" cx="458.45" cy="-250" rx="36.2558" ry="18"/>
<text text-anchor="middle" x="458.45" y="-245.8" font-family="Times,serif" font-size="14.00">League</text>
</g>
<!-- Competition&#45;&gt;League -->
<g id="edge2" class="edge"><title>Competition&#45;&gt;League</title>
<path fill="none" stroke="#11e659" d="M415.768,-316.863C423.885,-304.337 433.857,-288.949 442.121,-276.197"/>
<ellipse fill="none" stroke="#11e659" cx="413.534" cy="-320.309" rx="4.00002" ry="4.00002"/>
<polygon fill="#11e659" stroke="#11e659" points="442.347,-275.848 451.562,-269.904 445.066,-271.652 447.785,-267.456 447.785,-267.456 447.785,-267.456 445.066,-271.652 444.009,-265.009 442.347,-275.848 442.347,-275.848"/>
</g>
<!-- Season -->
<g id="node11" class="node"><title>Season</title>
<ellipse fill="none" stroke="black" cx="369.45" cy="-250" rx="35.3216" ry="18"/>
<text text-anchor="middle" x="369.45" y="-245.8" font-family="Times,serif" font-size="14.00">Season</text>
</g>
<!-- Competition&#45;&gt;Season -->
<g id="edge1" class="edge"><title>Competition&#45;&gt;Season</title>
<path fill="none" stroke="#88cba9" d="M391.71,-315.268C387.611,-303.434 382.728,-289.334 378.58,-277.361"/>
<ellipse fill="none" stroke="#88cba9" cx="393.163" cy="-319.464" rx="4.00001" ry="4.00001"/>
<polygon fill="#88cba9" stroke="#88cba9" points="378.576,-277.349 379.555,-266.427 376.94,-272.625 375.303,-267.9 375.303,-267.9 375.303,-267.9 376.94,-272.625 371.051,-269.373 378.576,-277.349 378.576,-277.349"/>
</g>
<!-- Game -->
<g id="node4" class="node"><title>Game</title>
<ellipse fill="none" stroke="black" cx="391.45" cy="-91" rx="31.4462" ry="18"/>
<text text-anchor="middle" x="391.45" y="-86.8" font-family="Times,serif" font-size="14.00">Game</text>
</g>
<!-- GameRound -->
<g id="node5" class="node"><title>GameRound</title>
<ellipse fill="none" stroke="black" cx="374.45" cy="-177" rx="54.6162" ry="18"/>
<text text-anchor="middle" x="374.45" y="-172.8" font-family="Times,serif" font-size="14.00">GameRound</text>
</g>
<!-- GameRound&#45;&gt;Game -->
<g id="edge3" class="edge"><title>GameRound&#45;&gt;Game</title>
<path fill="none" stroke="#2e96dc" d="M379.511,-150.991C381.547,-140.929 383.9,-129.303 385.976,-119.045"/>
<ellipse fill="none" stroke="#2e96dc" cx="378.683" cy="-155.081" rx="4.00001" ry="4.00001"/>
<polygon fill="#2e96dc" stroke="#2e96dc" points="386.031,-118.775 392.425,-109.866 387.023,-113.874 388.015,-108.973 388.015,-108.973 388.015,-108.973 387.023,-113.874 383.604,-108.081 386.031,-118.775 386.031,-118.775"/>
</g>
<!-- GameWeek -->
<g id="node6" class="node"><title>GameWeek</title>
<ellipse fill="none" stroke="black" cx="250.45" cy="-177" rx="51.2752" ry="18"/>
<text text-anchor="middle" x="250.45" y="-172.8" font-family="Times,serif" font-size="14.00">GameWeek</text>
</g>
<!-- GameWeek&#45;&gt;Game -->
<g id="edge5" class="edge"><title>GameWeek&#45;&gt;Game</title>
<path fill="none" stroke="#2fa58e" d="M276.421,-155.226C288.524,-146.017 303.342,-135.392 317.45,-127 330.103,-119.473 344.633,-112.307 357.449,-106.442"/>
<ellipse fill="none" stroke="#2fa58e" cx="273.167" cy="-157.733" rx="4.00002" ry="4.00002"/>
<polygon fill="#2fa58e" stroke="#2fa58e" points="357.731,-106.315 368.697,-106.332 362.294,-104.271 366.856,-102.226 366.856,-102.226 366.856,-102.226 362.294,-104.271 365.016,-98.1191 357.731,-106.315 357.731,-106.315"/>
</g>
<!-- PlayerGameWeek -->
<g id="node9" class="node"><title>PlayerGameWeek</title>
<ellipse fill="none" stroke="black" cx="514.45" cy="-91" rx="73.9601" ry="18"/>
<text text-anchor="middle" x="514.45" y="-86.8" font-family="Times,serif" font-size="14.00">PlayerGameWeek</text>
</g>
<!-- GameWeek&#45;&gt;PlayerGameWeek -->
<g id="edge4" class="edge"><title>GameWeek&#45;&gt;PlayerGameWeek</title>
<path fill="none" stroke="#f2ea0e" d="M294.791,-161.891C340.823,-147.245 412.811,-124.34 461.727,-108.776"/>
<ellipse fill="none" stroke="#f2ea0e" cx="290.969" cy="-163.107" rx="4.00001" ry="4.00001"/>
<polygon fill="#f2ea0e" stroke="#f2ea0e" points="461.963,-108.7 472.856,-109.957 466.727,-107.184 471.492,-105.668 471.492,-105.668 471.492,-105.668 466.727,-107.184 470.128,-101.38 461.963,-108.7 461.963,-108.7"/>
</g>
<!-- League&#45;&gt;Game -->
<g id="edge7" class="edge"><title>League&#45;&gt;Game</title>
<path fill="none" stroke="#0b68d6" d="M457.62,-223.684C455.916,-204.534 451.186,-178.325 438.45,-159 430.915,-147.568 422.105,-151.608 413.45,-141 408.061,-134.396 403.716,-126.261 400.356,-118.53"/>
<ellipse fill="none" stroke="#0b68d6" cx="457.907" cy="-227.687" rx="4" ry="4"/>
<polygon fill="#0b68d6" stroke="#0b68d6" points="400.303,-118.398 400.806,-107.443 398.463,-113.749 396.622,-109.1 396.622,-109.1 396.622,-109.1 398.463,-113.749 392.438,-110.756 400.303,-118.398 400.303,-118.398"/>
</g>
<!-- League&#45;&gt;GameRound -->
<g id="edge8" class="edge"><title>League&#45;&gt;GameRound</title>
<path fill="none" stroke="#d3ef1b" d="M434.496,-228.754C424.111,-219.975 411.907,-209.66 401.224,-200.63"/>
<ellipse fill="none" stroke="#d3ef1b" cx="437.581" cy="-231.361" rx="4.00002" ry="4.00002"/>
<polygon fill="#d3ef1b" stroke="#d3ef1b" points="401.043,-200.478 396.311,-190.586 397.224,-197.25 393.406,-194.022 393.406,-194.022 393.406,-194.022 397.224,-197.25 390.501,-197.459 401.043,-200.478 401.043,-200.478"/>
</g>
<!-- Team -->
<g id="node13" class="node"><title>Team</title>
<ellipse fill="none" stroke="black" cx="529.45" cy="-177" rx="29.7411" ry="18"/>
<text text-anchor="middle" x="529.45" y="-172.8" font-family="Times,serif" font-size="14.00">Team</text>
</g>
<!-- League&#45;&gt;Team -->
<g id="edge6" class="edge"><title>League&#45;&gt;Team</title>
<path fill="none" stroke="#9145d8" d="M479.817,-227.632C488.489,-218.961 498.505,-208.945 507.258,-200.191"/>
<ellipse fill="none" stroke="#9145d8" cx="476.684" cy="-230.766" rx="4.00002" ry="4.00002"/>
<polygon fill="#9145d8" stroke="#9145d8" points="507.489,-199.96 517.742,-196.071 511.025,-196.425 514.56,-192.889 514.56,-192.889 514.56,-192.889 511.025,-196.425 511.378,-189.707 507.489,-199.96 507.489,-199.96"/>
</g>
<!-- Player -->
<g id="node8" class="node"><title>Player</title>
<ellipse fill="none" stroke="black" cx="665.45" cy="-177" rx="32.8994" ry="18"/>
<text text-anchor="middle" x="665.45" y="-172.8" font-family="Times,serif" font-size="14.00">Player</text>
</g>
<!-- Player&#45;&gt;PlayerGameWeek -->
<g id="edge10" class="edge"><title>Player&#45;&gt;PlayerGameWeek</title>
<path fill="none" stroke="#5c4d31" d="M640.098,-157.091C626.617,-147.467 609.543,-135.945 593.45,-127 583.106,-121.251 571.635,-115.721 560.714,-110.822"/>
<ellipse fill="none" stroke="#5c4d31" cx="643.552" cy="-159.585" rx="4.00002" ry="4.00002"/>
<polygon fill="#5c4d31" stroke="#5c4d31" points="560.456,-110.709 553.109,-102.568 555.878,-108.699 551.3,-106.689 551.3,-106.689 551.3,-106.689 555.878,-108.699 549.491,-110.809 560.456,-110.709 560.456,-110.709"/>
</g>
<!-- TeamPlayer -->
<g id="node14" class="node"><title>TeamPlayer</title>
<ellipse fill="none" stroke="black" cx="696.45" cy="-91" rx="52.4261" ry="18"/>
<text text-anchor="middle" x="696.45" y="-86.8" font-family="Times,serif" font-size="14.00">TeamPlayer</text>
</g>
<!-- Player&#45;&gt;TeamPlayer -->
<g id="edge9" class="edge"><title>Player&#45;&gt;TeamPlayer</title>
<path fill="none" stroke="#bff76b" d="M676.169,-151.76C677.659,-148.173 679.129,-144.505 680.45,-141 683.078,-134.023 685.69,-126.398 688.018,-119.285"/>
<ellipse fill="none" stroke="#bff76b" cx="674.492" cy="-155.707" rx="4.00002" ry="4.00002"/>
<polygon fill="#bff76b" stroke="#bff76b" points="688.145,-118.889 695.48,-110.738 689.67,-114.127 691.195,-109.365 691.195,-109.365 691.195,-109.365 689.67,-114.127 686.909,-107.993 688.145,-118.889 688.145,-118.889"/>
</g>
<!-- PlayerLineup -->
<g id="node10" class="node"><title>PlayerLineup</title>
<ellipse fill="none" stroke="black" cx="616.45" cy="-18" rx="57.9979" ry="18"/>
<text text-anchor="middle" x="616.45" y="-13.8" font-family="Times,serif" font-size="14.00">PlayerLineup</text>
</g>
<!-- PlayerGameWeek&#45;&gt;PlayerLineup -->
<g id="edge11" class="edge"><title>PlayerGameWeek&#45;&gt;PlayerLineup</title>
<path fill="none" stroke="#aeea2b" d="M544.574,-69.0313C557.362,-60.1296 572.267,-49.7545 585.178,-40.7675"/>
<ellipse fill="none" stroke="#aeea2b" cx="540.878" cy="-71.6038" rx="4.00002" ry="4.00002"/>
<polygon fill="#aeea2b" stroke="#aeea2b" points="585.54,-40.5157 596.318,-38.496 589.644,-37.6592 593.747,-34.8027 593.747,-34.8027 593.747,-34.8027 589.644,-37.6592 591.176,-31.1093 585.54,-40.5157 585.54,-40.5157"/>
</g>
<!-- Season&#45;&gt;GameRound -->
<g id="edge13" class="edge"><title>Season&#45;&gt;GameRound</title>
<path fill="none" stroke="#8b2867" d="M371.225,-223.791C371.645,-217.832 372.094,-211.45 372.52,-205.399"/>
<ellipse fill="none" stroke="#8b2867" cx="370.941" cy="-227.823" rx="4" ry="4"/>
<polygon fill="#8b2867" stroke="#8b2867" points="372.548,-205.004 377.739,-195.345 372.899,-200.016 373.25,-195.029 373.25,-195.029 373.25,-195.029 372.899,-200.016 368.762,-194.713 372.548,-205.004 372.548,-205.004"/>
</g>
<!-- Season&#45;&gt;GameWeek -->
<g id="edge12" class="edge"><title>Season&#45;&gt;GameWeek</title>
<path fill="none" stroke="#99f925" d="M340.311,-231.614C323.344,-221.491 301.878,-208.684 284.181,-198.126"/>
<ellipse fill="none" stroke="#99f925" cx="343.911" cy="-233.762" rx="4.00002" ry="4.00002"/>
<polygon fill="#99f925" stroke="#99f925" points="283.902,-197.959 277.62,-188.971 279.608,-195.397 275.314,-192.835 275.314,-192.835 275.314,-192.835 279.608,-195.397 273.009,-196.7 283.902,-197.959 283.902,-197.959"/>
</g>
<!-- SquadPosition -->
<g id="node12" class="node"><title>SquadPosition</title>
<ellipse fill="none" stroke="black" cx="777.45" cy="-177" rx="61.4238" ry="18"/>
<text text-anchor="middle" x="777.45" y="-172.8" font-family="Times,serif" font-size="14.00">SquadPosition</text>
</g>
<!-- SquadPosition&#45;&gt;PlayerLineup -->
<g id="edge15" class="edge"><title>SquadPosition&#45;&gt;PlayerLineup</title>
<path fill="none" stroke="#9a4a0e" d="M779.044,-150.728C779.115,-127.897 775.625,-94.6483 757.45,-73 737.623,-49.3851 706.247,-36.0707 678.121,-28.5767"/>
<ellipse fill="none" stroke="#9a4a0e" cx="778.953" cy="-154.924" rx="4" ry="4"/>
<polygon fill="#9a4a0e" stroke="#9a4a0e" points="678.041,-28.5571 669.41,-21.7924 673.187,-27.3592 668.332,-26.1614 668.332,-26.1614 668.332,-26.1614 673.187,-27.3592 667.254,-30.5304 678.041,-28.5571 678.041,-28.5571"/>
</g>
<!-- SquadPosition&#45;&gt;TeamPlayer -->
<g id="edge14" class="edge"><title>SquadPosition&#45;&gt;TeamPlayer</title>
<path fill="none" stroke="#3ce03a" d="M755.807,-153.556C744.525,-141.856 730.731,-127.551 719.28,-115.676"/>
<ellipse fill="none" stroke="#3ce03a" cx="758.67" cy="-156.525" rx="4.00002" ry="4.00002"/>
<polygon fill="#3ce03a" stroke="#3ce03a" points="719.085,-115.474 715.383,-105.152 715.615,-111.875 712.144,-108.275 712.144,-108.275 712.144,-108.275 715.615,-111.875 708.905,-111.399 719.085,-115.474 719.085,-115.474"/>
</g>
<!-- Team&#45;&gt;Game -->
<g id="edge17" class="edge"><title>Team&#45;&gt;Game</title>
<path fill="none" stroke="#3265ba" d="M495.919,-165.753C472.632,-158.264 443.987,-148.202 433.581,-141 423.933,-134.324 415.136,-124.925 408.106,-116.142"/>
<ellipse fill="none" stroke="#3265ba" cx="499.765" cy="-166.974" rx="4.00001" ry="4.00001"/>
<polygon fill="#3265ba" stroke="#3265ba" points="407.985,-115.983 405.52,-105.297 404.961,-112.001 401.937,-108.019 401.937,-108.019 401.937,-108.019 404.961,-112.001 398.353,-110.741 407.985,-115.983 407.985,-115.983"/>
<text text-anchor="middle" x="470.384" y="-129.8" font-family="Times,serif" font-size="14.00">home_games</text>
</g>
<!-- Team&#45;&gt;Game -->
<g id="edge18" class="edge"><title>Team&#45;&gt;Game</title>
<path fill="none" stroke="#12eb9e" d="M523.31,-151.256C519.97,-142.446 514.934,-133.186 507.45,-127 480.693,-104.886 464.43,-119.827 431.45,-109 429.212,-108.265 426.924,-107.457 424.634,-106.604"/>
<ellipse fill="none" stroke="#12eb9e" cx="524.662" cy="-155.324" rx="4.00001" ry="4.00001"/>
<polygon fill="#12eb9e" stroke="#12eb9e" points="424.611,-106.595 416.965,-98.7339 419.961,-104.757 415.311,-102.919 415.311,-102.919 415.311,-102.919 419.961,-104.757 413.657,-107.104 424.611,-106.595 424.611,-106.595"/>
<text text-anchor="middle" x="553.602" y="-129.8" font-family="Times,serif" font-size="14.00">away_games</text>
</g>
<!-- Team&#45;&gt;PlayerLineup -->
<g id="edge19" class="edge"><title>Team&#45;&gt;PlayerLineup</title>
<path fill="none" stroke="#4641b7" d="M562.643,-164.673C574.03,-159.21 585.817,-151.505 593.45,-141 613.604,-113.261 617.592,-72.8858 617.722,-46.2907"/>
<ellipse fill="none" stroke="#4641b7" cx="558.921" cy="-166.323" rx="4.00002" ry="4.00002"/>
<polygon fill="#4641b7" stroke="#4641b7" points="617.721,-46.1509 622.088,-36.0925 617.655,-41.1514 617.589,-36.1518 617.589,-36.1518 617.589,-36.1518 617.655,-41.1514 613.089,-36.2111 617.721,-46.1509 617.721,-46.1509"/>
</g>
<!-- Team&#45;&gt;TeamPlayer -->
<g id="edge16" class="edge"><title>Team&#45;&gt;TeamPlayer</title>
<path fill="none" stroke="#04ea42" d="M563.723,-166.307C582.991,-160.237 607.171,-151.564 627.45,-141 641.954,-133.444 656.89,-123.195 669.141,-114.023"/>
<ellipse fill="none" stroke="#04ea42" cx="559.884" cy="-167.489" rx="4.00001" ry="4.00001"/>
<polygon fill="#04ea42" stroke="#04ea42" points="669.212,-113.968 679.889,-111.466 673.183,-110.93 677.154,-107.892 677.154,-107.892 677.154,-107.892 673.183,-110.93 674.42,-104.318 669.212,-113.968 669.212,-113.968"/>
</g>
<!-- Transfer -->
<g id="node15" class="node"><title>Transfer</title>
<ellipse fill="none" stroke="black" cx="612.45" cy="-341.5" rx="39.5027" ry="18"/>
<text text-anchor="middle" x="612.45" y="-337.3" font-family="Times,serif" font-size="14.00">Transfer</text>
</g>
<!-- TransferItem -->
<g id="node16" class="node"><title>TransferItem</title>
<ellipse fill="none" stroke="black" cx="612.45" cy="-250" rx="55.9128" ry="18"/>
<text text-anchor="middle" x="612.45" y="-245.8" font-family="Times,serif" font-size="14.00">TransferItem</text>
</g>
<!-- Transfer&#45;&gt;TransferItem -->
<g id="edge20" class="edge"><title>Transfer&#45;&gt;TransferItem</title>
<path fill="none" stroke="#d77a29" d="M612.45,-314.903C612.45,-303.441 612.45,-289.914 612.45,-278.263"/>
<ellipse fill="none" stroke="#d77a29" cx="612.45" cy="-319.243" rx="4" ry="4"/>
<polygon fill="#d77a29" stroke="#d77a29" points="612.45,-278.204 616.95,-268.203 612.45,-273.204 612.45,-268.204 612.45,-268.204 612.45,-268.204 612.45,-273.204 607.95,-268.204 612.45,-278.204 612.45,-278.204"/>
</g>
<!-- User -->
<g id="node17" class="node"><title>User</title>
<ellipse fill="none" stroke="black" cx="512.45" cy="-341.5" rx="27" ry="18"/>
<text text-anchor="middle" x="512.45" y="-337.3" font-family="Times,serif" font-size="14.00">User</text>
</g>
<!-- User&#45;&gt;League -->
<g id="edge22" class="edge"><title>User&#45;&gt;League</title>
<path fill="none" stroke="#39ce4f" d="M498.421,-317.249C490.839,-304.683 481.468,-289.15 473.705,-276.284"/>
<ellipse fill="none" stroke="#39ce4f" cx="500.729" cy="-321.074" rx="4.00002" ry="4.00002"/>
<polygon fill="#39ce4f" stroke="#39ce4f" points="473.552,-276.03 472.239,-265.143 470.969,-271.749 468.386,-267.468 468.386,-267.468 468.386,-267.468 470.969,-271.749 464.533,-269.793 473.552,-276.03 473.552,-276.03"/>
</g>
<!-- User&#45;&gt;Team -->
<g id="edge21" class="edge"><title>User&#45;&gt;Team</title>
<path fill="none" stroke="#84189b" d="M515.107,-315.098C518.228,-285.27 523.384,-235.985 526.589,-205.342"/>
<ellipse fill="none" stroke="#84189b" cx="514.653" cy="-319.438" rx="4" ry="4"/>
<polygon fill="#84189b" stroke="#84189b" points="526.595,-205.289 532.111,-195.812 527.115,-200.316 527.635,-195.343 527.635,-195.343 527.635,-195.343 527.115,-200.316 523.16,-194.875 526.595,-205.289 526.595,-205.289"/>
</g>
</g>
</svg>
