<?xml version="1.0" encoding="UTF-8" standalone="no"?>
<!DOCTYPE svg PUBLIC "-//W3C//DTD SVG 1.1//EN"
 "http://www.w3.org/Graphics/SVG/1.1/DTD/svg11.dtd">
<!-- Generated by graphviz version 2.38.0 (20140413.2041)
 -->
<!-- Title: models_diagram Pages: 1 -->
<svg width="1258pt" height="954pt"
 viewBox="0.00 0.00 1257.95 954.00" xmlns="http://www.w3.org/2000/svg" xmlns:xlink="http://www.w3.org/1999/xlink">
<g id="graph0" class="graph" transform="scale(1 1) rotate(0) translate(4 950)">
<title>models_diagram</title>
<polygon fill="none" stroke="none" points="-4,4 -4,-950 1253.95,-950 1253.95,4 -4,4"/>
<!-- _diagram_info -->
<g id="node1" class="node"><title>_diagram_info</title>
<text text-anchor="start" x="8" y="-861.6" font-family="Times,serif" font-size="13.00">Models diagram</text>
<text text-anchor="start" x="8" y="-848.6" font-family="Times,serif" font-size="13.00">Date: Feb 18 2016 &#45; 19:39</text>
<text text-anchor="start" x="8" y="-835.6" font-family="Times,serif" font-size="13.00">Migration version: 20160211054712</text>
<text text-anchor="start" x="8" y="-822.6" font-family="Times,serif" font-size="13.00">Generated by RailRoady 1.4.2</text>
<text text-anchor="start" x="8" y="-809.6" font-family="Times,serif" font-size="13.00">http://railroady.prestonlee.com</text>
</g>
<!-- AdminUser -->
<g id="node2" class="node"><title>AdminUser</title>
<path fill="none" stroke="black" d="M236.403,-733.5C236.403,-733.5 432.497,-733.5 432.497,-733.5 438.497,-733.5 444.497,-739.5 444.497,-745.5 444.497,-745.5 444.497,-933.5 444.497,-933.5 444.497,-939.5 438.497,-945.5 432.497,-945.5 432.497,-945.5 236.403,-945.5 236.403,-945.5 230.403,-945.5 224.403,-939.5 224.403,-933.5 224.403,-933.5 224.403,-745.5 224.403,-745.5 224.403,-739.5 230.403,-733.5 236.403,-733.5"/>
<text text-anchor="middle" x="334.45" y="-930.3" font-family="Times,serif" font-size="14.00">AdminUser</text>
<polyline fill="none" stroke="black" points="224.403,-923.5 444.497,-923.5 "/>
<text text-anchor="start" x="232.403" y="-908.3" font-family="Times,serif" font-size="14.00">id :INTEGER</text>
<text text-anchor="start" x="232.403" y="-894.3" font-family="Times,serif" font-size="14.00">email :varchar(255)</text>
<text text-anchor="start" x="232.403" y="-880.3" font-family="Times,serif" font-size="14.00">encrypted_password :varchar(255)</text>
<text text-anchor="start" x="232.403" y="-866.3" font-family="Times,serif" font-size="14.00">reset_password_token :varchar(255)</text>
<text text-anchor="start" x="232.403" y="-852.3" font-family="Times,serif" font-size="14.00">reset_password_sent_at :datetime</text>
<text text-anchor="start" x="232.403" y="-838.3" font-family="Times,serif" font-size="14.00">remember_created_at :datetime</text>
<text text-anchor="start" x="232.403" y="-824.3" font-family="Times,serif" font-size="14.00">sign_in_count :integer</text>
<text text-anchor="start" x="232.403" y="-810.3" font-family="Times,serif" font-size="14.00">current_sign_in_at :datetime</text>
<text text-anchor="start" x="232.403" y="-796.3" font-family="Times,serif" font-size="14.00">last_sign_in_at :datetime</text>
<text text-anchor="start" x="232.403" y="-782.3" font-family="Times,serif" font-size="14.00">current_sign_in_ip :varchar(255)</text>
<text text-anchor="start" x="232.403" y="-768.3" font-family="Times,serif" font-size="14.00">last_sign_in_ip :varchar(255)</text>
<text text-anchor="start" x="232.403" y="-754.3" font-family="Times,serif" font-size="14.00">created_at :datetime</text>
<text text-anchor="start" x="232.403" y="-740.3" font-family="Times,serif" font-size="14.00">updated_at :datetime</text>
</g>
<!-- Competition -->
<g id="node3" class="node"><title>Competition</title>
<path fill="none" stroke="black" d="M474.568,-782.5C474.568,-782.5 654.331,-782.5 654.331,-782.5 660.331,-782.5 666.331,-788.5 666.331,-794.5 666.331,-794.5 666.331,-884.5 666.331,-884.5 666.331,-890.5 660.331,-896.5 654.331,-896.5 654.331,-896.5 474.568,-896.5 474.568,-896.5 468.568,-896.5 462.568,-890.5 462.568,-884.5 462.568,-884.5 462.568,-794.5 462.568,-794.5 462.568,-788.5 468.568,-782.5 474.568,-782.5"/>
<text text-anchor="middle" x="564.45" y="-881.3" font-family="Times,serif" font-size="14.00">Competition</text>
<polyline fill="none" stroke="black" points="462.568,-874.5 666.331,-874.5 "/>
<text text-anchor="start" x="470.568" y="-859.3" font-family="Times,serif" font-size="14.00">id :INTEGER</text>
<text text-anchor="start" x="470.568" y="-845.3" font-family="Times,serif" font-size="14.00">country_code :varchar(255)</text>
<text text-anchor="start" x="470.568" y="-831.3" font-family="Times,serif" font-size="14.00">description :varchar(255)</text>
<text text-anchor="start" x="470.568" y="-817.3" font-family="Times,serif" font-size="14.00">game_weeks_per_season :integer</text>
<text text-anchor="start" x="470.568" y="-803.3" font-family="Times,serif" font-size="14.00">created_at :datetime</text>
<text text-anchor="start" x="470.568" y="-789.3" font-family="Times,serif" font-size="14.00">updated_at :datetime</text>
</g>
<!-- League -->
<g id="node7" class="node"><title>League</title>
<path fill="none" stroke="black" d="M643.938,-560.5C643.938,-560.5 766.962,-560.5 766.962,-560.5 772.962,-560.5 778.962,-566.5 778.962,-572.5 778.962,-572.5 778.962,-662.5 778.962,-662.5 778.962,-668.5 772.962,-674.5 766.962,-674.5 766.962,-674.5 643.938,-674.5 643.938,-674.5 637.938,-674.5 631.938,-668.5 631.938,-662.5 631.938,-662.5 631.938,-572.5 631.938,-572.5 631.938,-566.5 637.938,-560.5 643.938,-560.5"/>
<text text-anchor="middle" x="705.45" y="-659.3" font-family="Times,serif" font-size="14.00">League</text>
<polyline fill="none" stroke="black" points="631.938,-652.5 778.962,-652.5 "/>
<text text-anchor="start" x="639.938" y="-637.3" font-family="Times,serif" font-size="14.00">id :INTEGER</text>
<text text-anchor="start" x="639.938" y="-623.3" font-family="Times,serif" font-size="14.00">name :varchar(255)</text>
<text text-anchor="start" x="639.938" y="-609.3" font-family="Times,serif" font-size="14.00">created_at :datetime</text>
<text text-anchor="start" x="639.938" y="-595.3" font-family="Times,serif" font-size="14.00">updated_at :datetime</text>
<text text-anchor="start" x="639.938" y="-581.3" font-family="Times,serif" font-size="14.00">user_id :integer</text>
<text text-anchor="start" x="639.938" y="-567.3" font-family="Times,serif" font-size="14.00">competition_id :integer</text>
</g>
<!-- Competition&#45;&gt;League -->
<g id="edge2" class="edge"><title>Competition&#45;&gt;League</title>
<path fill="none" stroke="#2ff8e0" d="M604.93,-775.339C623.42,-746.489 645.298,-712.354 663.914,-683.307"/>
<ellipse fill="none" stroke="#2ff8e0" cx="602.553" cy="-779.048" rx="4.00002" ry="4.00002"/>
<polygon fill="#2ff8e0" stroke="#2ff8e0" points="663.929,-683.283 673.114,-677.292 666.627,-679.074 669.325,-674.864 669.325,-674.864 669.325,-674.864 666.627,-679.074 665.537,-672.436 663.929,-683.283 663.929,-683.283"/>
</g>
<!-- Season -->
<g id="node11" class="node"><title>Season</title>
<path fill="none" stroke="black" d="M468.506,-553.5C468.506,-553.5 602.393,-553.5 602.393,-553.5 608.393,-553.5 614.393,-559.5 614.393,-565.5 614.393,-565.5 614.393,-669.5 614.393,-669.5 614.393,-675.5 608.393,-681.5 602.393,-681.5 602.393,-681.5 468.506,-681.5 468.506,-681.5 462.506,-681.5 456.506,-675.5 456.506,-669.5 456.506,-669.5 456.506,-565.5 456.506,-565.5 456.506,-559.5 462.506,-553.5 468.506,-553.5"/>
<text text-anchor="middle" x="535.45" y="-666.3" font-family="Times,serif" font-size="14.00">Season</text>
<polyline fill="none" stroke="black" points="456.506,-659.5 614.393,-659.5 "/>
<text text-anchor="start" x="464.506" y="-644.3" font-family="Times,serif" font-size="14.00">id :INTEGER</text>
<text text-anchor="start" x="464.506" y="-630.3" font-family="Times,serif" font-size="14.00">description :varchar(255)</text>
<text text-anchor="start" x="464.506" y="-616.3" font-family="Times,serif" font-size="14.00">starts_at :datetime</text>
<text text-anchor="start" x="464.506" y="-602.3" font-family="Times,serif" font-size="14.00">ends_at :datetime</text>
<text text-anchor="start" x="464.506" y="-588.3" font-family="Times,serif" font-size="14.00">created_at :datetime</text>
<text text-anchor="start" x="464.506" y="-574.3" font-family="Times,serif" font-size="14.00">updated_at :datetime</text>
<text text-anchor="start" x="464.506" y="-560.3" font-family="Times,serif" font-size="14.00">competition_id :integer</text>
</g>
<!-- Competition&#45;&gt;Season -->
<g id="edge1" class="edge"><title>Competition&#45;&gt;Season</title>
<path fill="none" stroke="#3da0c9" d="M555.994,-774.35C552.59,-748.529 548.645,-718.604 545.128,-691.92"/>
<ellipse fill="none" stroke="#3da0c9" cx="556.534" cy="-778.45" rx="4.00001" ry="4.00001"/>
<polygon fill="#3da0c9" stroke="#3da0c9" points="545.11,-691.781 548.264,-681.279 544.456,-686.824 543.803,-681.867 543.803,-681.867 543.803,-681.867 544.456,-686.824 539.341,-682.455 545.11,-691.781 545.11,-691.781"/>
</g>
<!-- Game -->
<g id="node4" class="node"><title>Game</title>
<path fill="none" stroke="black" d="M582.396,-152.5C582.396,-152.5 722.503,-152.5 722.503,-152.5 728.503,-152.5 734.503,-158.5 734.503,-164.5 734.503,-164.5 734.503,-310.5 734.503,-310.5 734.503,-316.5 728.503,-322.5 722.503,-322.5 722.503,-322.5 582.396,-322.5 582.396,-322.5 576.396,-322.5 570.396,-316.5 570.396,-310.5 570.396,-310.5 570.396,-164.5 570.396,-164.5 570.396,-158.5 576.396,-152.5 582.396,-152.5"/>
<text text-anchor="middle" x="652.45" y="-307.3" font-family="Times,serif" font-size="14.00">Game</text>
<polyline fill="none" stroke="black" points="570.396,-300.5 734.503,-300.5 "/>
<text text-anchor="start" x="578.396" y="-285.3" font-family="Times,serif" font-size="14.00">id :INTEGER</text>
<text text-anchor="start" x="578.396" y="-271.3" font-family="Times,serif" font-size="14.00">home_team_id :integer</text>
<text text-anchor="start" x="578.396" y="-257.3" font-family="Times,serif" font-size="14.00">away_team_id :integer</text>
<text text-anchor="start" x="578.396" y="-243.3" font-family="Times,serif" font-size="14.00">game_week_id :integer</text>
<text text-anchor="start" x="578.396" y="-229.3" font-family="Times,serif" font-size="14.00">created_at :datetime</text>
<text text-anchor="start" x="578.396" y="-215.3" font-family="Times,serif" font-size="14.00">updated_at :datetime</text>
<text text-anchor="start" x="578.396" y="-201.3" font-family="Times,serif" font-size="14.00">game_round_id :integer</text>
<text text-anchor="start" x="578.396" y="-187.3" font-family="Times,serif" font-size="14.00">league_id :integer</text>
<text text-anchor="start" x="578.396" y="-173.3" font-family="Times,serif" font-size="14.00">home_team_score :integer</text>
<text text-anchor="start" x="578.396" y="-159.3" font-family="Times,serif" font-size="14.00">away_team_score :integer</text>
</g>
<!-- GameRound -->
<g id="node5" class="node"><title>GameRound</title>
<path fill="none" stroke="black" d="M505.448,-380.5C505.448,-380.5 663.452,-380.5 663.452,-380.5 669.452,-380.5 675.452,-386.5 675.452,-392.5 675.452,-392.5 675.452,-482.5 675.452,-482.5 675.452,-488.5 669.452,-494.5 663.452,-494.5 663.452,-494.5 505.448,-494.5 505.448,-494.5 499.448,-494.5 493.448,-488.5 493.448,-482.5 493.448,-482.5 493.448,-392.5 493.448,-392.5 493.448,-386.5 499.448,-380.5 505.448,-380.5"/>
<text text-anchor="middle" x="584.45" y="-479.3" font-family="Times,serif" font-size="14.00">GameRound</text>
<polyline fill="none" stroke="black" points="493.448,-472.5 675.452,-472.5 "/>
<text text-anchor="start" x="501.448" y="-457.3" font-family="Times,serif" font-size="14.00">id :INTEGER</text>
<text text-anchor="start" x="501.448" y="-443.3" font-family="Times,serif" font-size="14.00">game_round_number :integer</text>
<text text-anchor="start" x="501.448" y="-429.3" font-family="Times,serif" font-size="14.00">season_id :integer</text>
<text text-anchor="start" x="501.448" y="-415.3" font-family="Times,serif" font-size="14.00">league_id :integer</text>
<text text-anchor="start" x="501.448" y="-401.3" font-family="Times,serif" font-size="14.00">created_at :datetime</text>
<text text-anchor="start" x="501.448" y="-387.3" font-family="Times,serif" font-size="14.00">updated_at :datetime</text>
</g>
<!-- GameRound&#45;&gt;Game -->
<g id="edge3" class="edge"><title>GameRound&#45;&gt;Game</title>
<path fill="none" stroke="#f90518" d="M606.399,-372.589C610.845,-359.642 615.608,-345.776 620.322,-332.049"/>
<ellipse fill="none" stroke="#f90518" cx="605.053" cy="-376.508" rx="4.00001" ry="4.00001"/>
<polygon fill="#f90518" stroke="#f90518" points="620.325,-332.04 627.829,-324.044 621.949,-327.311 623.573,-322.582 623.573,-322.582 623.573,-322.582 621.949,-327.311 619.317,-321.12 620.325,-332.04 620.325,-332.04"/>
</g>
<!-- GameWeek -->
<g id="node6" class="node"><title>GameWeek</title>
<path fill="none" stroke="black" d="M353.944,-380.5C353.944,-380.5 462.955,-380.5 462.955,-380.5 468.955,-380.5 474.955,-386.5 474.955,-392.5 474.955,-392.5 474.955,-482.5 474.955,-482.5 474.955,-488.5 468.955,-494.5 462.955,-494.5 462.955,-494.5 353.944,-494.5 353.944,-494.5 347.944,-494.5 341.944,-488.5 341.944,-482.5 341.944,-482.5 341.944,-392.5 341.944,-392.5 341.944,-386.5 347.944,-380.5 353.944,-380.5"/>
<text text-anchor="middle" x="408.45" y="-479.3" font-family="Times,serif" font-size="14.00">GameWeek</text>
<polyline fill="none" stroke="black" points="341.944,-472.5 474.955,-472.5 "/>
<text text-anchor="start" x="349.944" y="-457.3" font-family="Times,serif" font-size="14.00">id :INTEGER</text>
<text text-anchor="start" x="349.944" y="-443.3" font-family="Times,serif" font-size="14.00">created_at :datetime</text>
<text text-anchor="start" x="349.944" y="-429.3" font-family="Times,serif" font-size="14.00">updated_at :datetime</text>
<text text-anchor="start" x="349.944" y="-415.3" font-family="Times,serif" font-size="14.00">season_id :integer</text>
<text text-anchor="start" x="349.944" y="-401.3" font-family="Times,serif" font-size="14.00">starts_at :date</text>
<text text-anchor="start" x="349.944" y="-387.3" font-family="Times,serif" font-size="14.00">ends_at :date</text>
</g>
<!-- GameWeek&#45;&gt;Game -->
<g id="edge5" class="edge"><title>GameWeek&#45;&gt;Game</title>
<path fill="none" stroke="#77f08f" d="M481.562,-375.365C482.53,-374.571 483.493,-373.782 484.45,-373 509.502,-352.509 536.836,-330.485 562.039,-310.312"/>
<ellipse fill="none" stroke="#77f08f" cx="478.202" cy="-378.127" rx="4.00002" ry="4.00002"/>
<polygon fill="#77f08f" stroke="#77f08f" points="562.332,-310.078 572.953,-307.346 566.237,-306.955 570.142,-303.832 570.142,-303.832 570.142,-303.832 566.237,-306.955 567.331,-300.318 562.332,-310.078 562.332,-310.078"/>
</g>
<!-- PlayerGameWeek -->
<g id="node9" class="node"><title>PlayerGameWeek</title>
<path fill="none" stroke="black" d="M764.996,-194.5C764.996,-194.5 891.903,-194.5 891.903,-194.5 897.903,-194.5 903.903,-200.5 903.903,-206.5 903.903,-206.5 903.903,-268.5 903.903,-268.5 903.903,-274.5 897.903,-280.5 891.903,-280.5 891.903,-280.5 764.996,-280.5 764.996,-280.5 758.996,-280.5 752.996,-274.5 752.996,-268.5 752.996,-268.5 752.996,-206.5 752.996,-206.5 752.996,-200.5 758.996,-194.5 764.996,-194.5"/>
<text text-anchor="middle" x="828.45" y="-265.3" font-family="Times,serif" font-size="14.00">PlayerGameWeek</text>
<polyline fill="none" stroke="black" points="752.996,-258.5 903.903,-258.5 "/>
<text text-anchor="start" x="760.996" y="-243.3" font-family="Times,serif" font-size="14.00">id :INTEGER</text>
<text text-anchor="start" x="760.996" y="-229.3" font-family="Times,serif" font-size="14.00">minutes_played :integer</text>
<text text-anchor="start" x="760.996" y="-215.3" font-family="Times,serif" font-size="14.00">game_week_id :integer</text>
<text text-anchor="start" x="760.996" y="-201.3" font-family="Times,serif" font-size="14.00">player_id :integer</text>
</g>
<!-- GameWeek&#45;&gt;PlayerGameWeek -->
<g id="edge4" class="edge"><title>GameWeek&#45;&gt;PlayerGameWeek</title>
<path fill="none" stroke="#50b5e0" d="M478.15,-376.215C480.237,-375.078 482.338,-374.003 484.45,-373 590.351,-322.707 639.82,-377.82 743.45,-323 759.9,-314.298 775.231,-301.362 788.216,-288.214"/>
<ellipse fill="none" stroke="#50b5e0" cx="474.578" cy="-378.294" rx="4.00002" ry="4.00002"/>
<polygon fill="#50b5e0" stroke="#50b5e0" points="788.279,-288.148 798.438,-284.019 791.73,-284.53 795.182,-280.912 795.182,-280.912 795.182,-280.912 791.73,-284.53 791.926,-277.806 788.279,-288.148 788.279,-288.148"/>
</g>
<!-- League&#45;&gt;Game -->
<g id="edge7" class="edge"><title>League&#45;&gt;Game</title>
<path fill="none" stroke="#38de6d" d="M702.49,-552.081C699.6,-502.812 694.171,-433.316 684.45,-373 682.329,-359.843 679.623,-346.066 676.685,-332.557"/>
<ellipse fill="none" stroke="#38de6d" cx="702.721" cy="-556.123" rx="4" ry="4"/>
<polygon fill="#38de6d" stroke="#38de6d" points="676.682,-332.542 678.903,-321.803 675.596,-327.661 674.51,-322.781 674.51,-322.781 674.51,-322.781 675.596,-327.661 670.118,-323.758 676.682,-332.542 676.682,-332.542"/>
</g>
<!-- League&#45;&gt;GameRound -->
<g id="edge8" class="edge"><title>League&#45;&gt;GameRound</title>
<path fill="none" stroke="#451020" d="M662.615,-553.487C651.531,-537.181 639.579,-519.6 628.437,-503.209"/>
<ellipse fill="none" stroke="#451020" cx="664.916" cy="-556.872" rx="4.00002" ry="4.00002"/>
<polygon fill="#451020" stroke="#451020" points="628.315,-503.029 626.415,-492.229 625.504,-498.894 622.693,-494.759 622.693,-494.759 622.693,-494.759 625.504,-498.894 618.972,-497.289 628.315,-503.029 628.315,-503.029"/>
</g>
<!-- Team -->
<g id="node13" class="node"><title>Team</title>
<path fill="none" stroke="black" d="M743.227,-373.5C743.227,-373.5 885.672,-373.5 885.672,-373.5 891.672,-373.5 897.672,-379.5 897.672,-385.5 897.672,-385.5 897.672,-489.5 897.672,-489.5 897.672,-495.5 891.672,-501.5 885.672,-501.5 885.672,-501.5 743.227,-501.5 743.227,-501.5 737.227,-501.5 731.227,-495.5 731.227,-489.5 731.227,-489.5 731.227,-385.5 731.227,-385.5 731.227,-379.5 737.227,-373.5 743.227,-373.5"/>
<text text-anchor="middle" x="814.45" y="-486.3" font-family="Times,serif" font-size="14.00">Team</text>
<polyline fill="none" stroke="black" points="731.227,-479.5 897.672,-479.5 "/>
<text text-anchor="start" x="739.227" y="-464.3" font-family="Times,serif" font-size="14.00">id :INTEGER</text>
<text text-anchor="start" x="739.227" y="-450.3" font-family="Times,serif" font-size="14.00">title :varchar(255)</text>
<text text-anchor="start" x="739.227" y="-436.3" font-family="Times,serif" font-size="14.00">created_at :datetime</text>
<text text-anchor="start" x="739.227" y="-422.3" font-family="Times,serif" font-size="14.00">updated_at :datetime</text>
<text text-anchor="start" x="739.227" y="-408.3" font-family="Times,serif" font-size="14.00">user_id :integer</text>
<text text-anchor="start" x="739.227" y="-394.3" font-family="Times,serif" font-size="14.00">league_id :integer</text>
<text text-anchor="start" x="739.227" y="-380.3" font-family="Times,serif" font-size="14.00">cash_balance_cents :bigint</text>
</g>
<!-- League&#45;&gt;Team -->
<g id="edge6" class="edge"><title>League&#45;&gt;Team</title>
<path fill="none" stroke="#d10bc7" d="M744.277,-553.094C752.766,-539.23 761.81,-524.462 770.484,-510.297"/>
<ellipse fill="none" stroke="#d10bc7" cx="742.027" cy="-556.768" rx="4.00002" ry="4.00002"/>
<polygon fill="#d10bc7" stroke="#d10bc7" points="770.606,-510.097 779.666,-503.919 773.217,-505.833 775.829,-501.569 775.829,-501.569 775.829,-501.569 773.217,-505.833 771.991,-499.219 770.606,-510.097 770.606,-510.097"/>
</g>
<!-- Player -->
<g id="node8" class="node"><title>Player</title>
<path fill="none" stroke="black" d="M928.058,-387.5C928.058,-387.5 1058.84,-387.5 1058.84,-387.5 1064.84,-387.5 1070.84,-393.5 1070.84,-399.5 1070.84,-399.5 1070.84,-475.5 1070.84,-475.5 1070.84,-481.5 1064.84,-487.5 1058.84,-487.5 1058.84,-487.5 928.058,-487.5 928.058,-487.5 922.058,-487.5 916.058,-481.5 916.058,-475.5 916.058,-475.5 916.058,-399.5 916.058,-399.5 916.058,-393.5 922.058,-387.5 928.058,-387.5"/>
<text text-anchor="middle" x="993.45" y="-472.3" font-family="Times,serif" font-size="14.00">Player</text>
<polyline fill="none" stroke="black" points="916.058,-465.5 1070.84,-465.5 "/>
<text text-anchor="start" x="924.058" y="-450.3" font-family="Times,serif" font-size="14.00">id :INTEGER</text>
<text text-anchor="start" x="924.058" y="-436.3" font-family="Times,serif" font-size="14.00">first_name :varchar(255)</text>
<text text-anchor="start" x="924.058" y="-422.3" font-family="Times,serif" font-size="14.00">last_name :varchar(255)</text>
<text text-anchor="start" x="924.058" y="-408.3" font-family="Times,serif" font-size="14.00">created_at :datetime</text>
<text text-anchor="start" x="924.058" y="-394.3" font-family="Times,serif" font-size="14.00">updated_at :datetime</text>
</g>
<!-- Player&#45;&gt;PlayerGameWeek -->
<g id="edge10" class="edge"><title>Player&#45;&gt;PlayerGameWeek</title>
<path fill="none" stroke="#86e088" d="M947.241,-381.05C923.031,-351.998 893.613,-316.696 870.109,-288.492"/>
<ellipse fill="none" stroke="#86e088" cx="949.89" cy="-384.229" rx="4.00002" ry="4.00002"/>
<polygon fill="#86e088" stroke="#86e088" points="870.048,-288.418 867.103,-277.855 866.847,-284.577 863.646,-280.736 863.646,-280.736 863.646,-280.736 866.847,-284.577 860.189,-283.617 870.048,-288.418 870.048,-288.418"/>
</g>
<!-- TeamPlayer -->
<g id="node14" class="node"><title>TeamPlayer</title>
<path fill="none" stroke="black" d="M970.986,-173.5C970.986,-173.5 1111.91,-173.5 1111.91,-173.5 1117.91,-173.5 1123.91,-179.5 1123.91,-185.5 1123.91,-185.5 1123.91,-289.5 1123.91,-289.5 1123.91,-295.5 1117.91,-301.5 1111.91,-301.5 1111.91,-301.5 970.986,-301.5 970.986,-301.5 964.986,-301.5 958.986,-295.5 958.986,-289.5 958.986,-289.5 958.986,-185.5 958.986,-185.5 958.986,-179.5 964.986,-173.5 970.986,-173.5"/>
<text text-anchor="middle" x="1041.45" y="-286.3" font-family="Times,serif" font-size="14.00">TeamPlayer</text>
<polyline fill="none" stroke="black" points="958.986,-279.5 1123.91,-279.5 "/>
<text text-anchor="start" x="966.986" y="-264.3" font-family="Times,serif" font-size="14.00">id :INTEGER</text>
<text text-anchor="start" x="966.986" y="-250.3" font-family="Times,serif" font-size="14.00">team_id :integer</text>
<text text-anchor="start" x="966.986" y="-236.3" font-family="Times,serif" font-size="14.00">created_at :datetime</text>
<text text-anchor="start" x="966.986" y="-222.3" font-family="Times,serif" font-size="14.00">updated_at :datetime</text>
<text text-anchor="start" x="966.986" y="-208.3" font-family="Times,serif" font-size="14.00">first_team :boolean</text>
<text text-anchor="start" x="966.986" y="-194.3" font-family="Times,serif" font-size="14.00">player_id :integer</text>
<text text-anchor="start" x="966.986" y="-180.3" font-family="Times,serif" font-size="14.00">squad_position_id :integer</text>
</g>
<!-- Player&#45;&gt;TeamPlayer -->
<g id="edge9" class="edge"><title>Player&#45;&gt;TeamPlayer</title>
<path fill="none" stroke="#5c8041" d="M1007.33,-379.236C1012.46,-358.087 1018.34,-333.827 1023.76,-311.472"/>
<ellipse fill="none" stroke="#5c8041" cx="1006.32" cy="-383.414" rx="4.00001" ry="4.00001"/>
<polygon fill="#5c8041" stroke="#5c8041" points="1023.77,-311.408 1030.5,-302.75 1024.95,-306.549 1026.13,-301.69 1026.13,-301.69 1026.13,-301.69 1024.95,-306.549 1021.76,-300.629 1023.77,-311.408 1023.77,-311.408"/>
</g>
<!-- PlayerLineup -->
<g id="node10" class="node"><title>PlayerLineup</title>
<path fill="none" stroke="black" d="M848.958,-0.5C848.958,-0.5 1013.94,-0.5 1013.94,-0.5 1019.94,-0.5 1025.94,-6.5 1025.94,-12.5 1025.94,-12.5 1025.94,-102.5 1025.94,-102.5 1025.94,-108.5 1019.94,-114.5 1013.94,-114.5 1013.94,-114.5 848.958,-114.5 848.958,-114.5 842.958,-114.5 836.958,-108.5 836.958,-102.5 836.958,-102.5 836.958,-12.5 836.958,-12.5 836.958,-6.5 842.958,-0.5 848.958,-0.5"/>
<text text-anchor="middle" x="931.45" y="-99.3" font-family="Times,serif" font-size="14.00">PlayerLineup</text>
<polyline fill="none" stroke="black" points="836.958,-92.5 1025.94,-92.5 "/>
<text text-anchor="start" x="844.958" y="-77.3" font-family="Times,serif" font-size="14.00">id :INTEGER</text>
<text text-anchor="start" x="844.958" y="-63.3" font-family="Times,serif" font-size="14.00">team_id :integer</text>
<text text-anchor="start" x="844.958" y="-49.3" font-family="Times,serif" font-size="14.00">player_game_week_id :integer</text>
<text text-anchor="start" x="844.958" y="-35.3" font-family="Times,serif" font-size="14.00">created_at :datetime</text>
<text text-anchor="start" x="844.958" y="-21.3" font-family="Times,serif" font-size="14.00">updated_at :datetime</text>
<text text-anchor="start" x="844.958" y="-7.3" font-family="Times,serif" font-size="14.00">squad_position_id :integer</text>
</g>
<!-- PlayerGameWeek&#45;&gt;PlayerLineup -->
<g id="edge11" class="edge"><title>PlayerGameWeek&#45;&gt;PlayerLineup</title>
<path fill="none" stroke="#5c8a01" d="M857.001,-187.159C868.411,-167.44 881.711,-144.456 893.887,-123.414"/>
<ellipse fill="none" stroke="#5c8a01" cx="854.863" cy="-190.854" rx="4.00002" ry="4.00002"/>
<polygon fill="#5c8a01" stroke="#5c8a01" points="894.019,-123.186 902.923,-116.784 896.523,-118.858 899.028,-114.53 899.028,-114.53 899.028,-114.53 896.523,-118.858 895.133,-112.276 894.019,-123.186 894.019,-123.186"/>
</g>
<!-- Season&#45;&gt;GameRound -->
<g id="edge13" class="edge"><title>Season&#45;&gt;GameRound</title>
<path fill="none" stroke="#2cd9a8" d="M554.924,-545.758C558.689,-532.081 562.619,-517.802 566.339,-504.29"/>
<ellipse fill="none" stroke="#2cd9a8" cx="553.856" cy="-549.637" rx="4.00001" ry="4.00001"/>
<polygon fill="#2cd9a8" stroke="#2cd9a8" points="566.35,-504.248 573.343,-495.801 567.678,-499.427 569.005,-494.607 569.005,-494.607 569.005,-494.607 567.678,-499.427 564.666,-493.412 566.35,-504.248 566.35,-504.248"/>
</g>
<!-- Season&#45;&gt;GameWeek -->
<g id="edge12" class="edge"><title>Season&#45;&gt;GameWeek</title>
<path fill="none" stroke="#28fbd1" d="M485.632,-546.676C475.332,-532.24 464.528,-517.098 454.375,-502.868"/>
<ellipse fill="none" stroke="#28fbd1" cx="488.172" cy="-550.237" rx="4.00002" ry="4.00002"/>
<polygon fill="#28fbd1" stroke="#28fbd1" points="454.289,-502.747 452.144,-491.993 451.385,-498.677 448.481,-494.607 448.481,-494.607 448.481,-494.607 451.385,-498.677 444.818,-497.22 454.289,-502.747 454.289,-502.747"/>
</g>
<!-- SquadPosition -->
<g id="node12" class="node"><title>SquadPosition</title>
<path fill="none" stroke="black" d="M1100.95,-387.5C1100.95,-387.5 1237.95,-387.5 1237.95,-387.5 1243.95,-387.5 1249.95,-393.5 1249.95,-399.5 1249.95,-399.5 1249.95,-475.5 1249.95,-475.5 1249.95,-481.5 1243.95,-487.5 1237.95,-487.5 1237.95,-487.5 1100.95,-487.5 1100.95,-487.5 1094.95,-487.5 1088.95,-481.5 1088.95,-475.5 1088.95,-475.5 1088.95,-399.5 1088.95,-399.5 1088.95,-393.5 1094.95,-387.5 1100.95,-387.5"/>
<text text-anchor="middle" x="1169.45" y="-472.3" font-family="Times,serif" font-size="14.00">SquadPosition</text>
<polyline fill="none" stroke="black" points="1088.95,-465.5 1249.95,-465.5 "/>
<text text-anchor="start" x="1096.95" y="-450.3" font-family="Times,serif" font-size="14.00">id :INTEGER</text>
<text text-anchor="start" x="1096.95" y="-436.3" font-family="Times,serif" font-size="14.00">short_name :varchar(255)</text>
<text text-anchor="start" x="1096.95" y="-422.3" font-family="Times,serif" font-size="14.00">created_at :datetime</text>
<text text-anchor="start" x="1096.95" y="-408.3" font-family="Times,serif" font-size="14.00">updated_at :datetime</text>
<text text-anchor="start" x="1096.95" y="-394.3" font-family="Times,serif" font-size="14.00">sort_order :integer</text>
</g>
<!-- SquadPosition&#45;&gt;PlayerLineup -->
<g id="edge15" class="edge"><title>SquadPosition&#45;&gt;PlayerLineup</title>
<path fill="none" stroke="#0128ca" d="M1177.18,-379.17C1182.35,-317.135 1180.98,-218.231 1132.45,-152 1108.96,-119.94 1071.71,-98.5303 1035.63,-84.3958"/>
<ellipse fill="none" stroke="#0128ca" cx="1176.8" cy="-383.312" rx="4" ry="4"/>
<polygon fill="#0128ca" stroke="#0128ca" points="1035.35,-84.2934 1027.57,-76.5655 1030.67,-82.5359 1025.99,-80.7784 1025.99,-80.7784 1025.99,-80.7784 1030.67,-82.5359 1024.41,-84.9912 1035.35,-84.2934 1035.35,-84.2934"/>
</g>
<!-- SquadPosition&#45;&gt;TeamPlayer -->
<g id="edge14" class="edge"><title>SquadPosition&#45;&gt;TeamPlayer</title>
<path fill="none" stroke="#697baf" d="M1133.25,-380.499C1119.11,-358.631 1102.73,-333.288 1087.75,-310.117"/>
<ellipse fill="none" stroke="#697baf" cx="1135.47" cy="-383.943" rx="4.00002" ry="4.00002"/>
<polygon fill="#697baf" stroke="#697baf" points="1087.73,-310.088 1086.08,-299.247 1085.01,-305.889 1082.3,-301.69 1082.3,-301.69 1082.3,-301.69 1085.01,-305.889 1078.52,-304.133 1087.73,-310.088 1087.73,-310.088"/>
</g>
<!-- Team&#45;&gt;Game -->
<g id="edge17" class="edge"><title>Team&#45;&gt;Game</title>
<path fill="none" stroke="#4d2359" d="M747.727,-366.881C744.248,-362.904 740.845,-358.926 737.581,-355 731.088,-347.191 724.516,-338.933 718.054,-330.564"/>
<ellipse fill="none" stroke="#4d2359" cx="750.597" cy="-370.128" rx="4.00002" ry="4.00002"/>
<polygon fill="#4d2359" stroke="#4d2359" points="717.974,-330.46 715.471,-319.784 714.936,-326.489 711.897,-322.518 711.897,-322.518 711.897,-322.518 714.936,-326.489 708.323,-325.253 717.974,-330.46 717.974,-330.46"/>
<text text-anchor="middle" x="774.384" y="-343.8" font-family="Times,serif" font-size="14.00">home_games</text>
</g>
<!-- Team&#45;&gt;Game -->
<g id="edge18" class="edge"><title>Team&#45;&gt;Game</title>
<path fill="none" stroke="#08a7a6" d="M822.273,-365.515C820.473,-356.612 817.105,-348.141 811.45,-341 792.306,-316.829 771.469,-337.855 744.45,-323 744.034,-322.771 743.619,-322.541 743.204,-322.308"/>
<ellipse fill="none" stroke="#08a7a6" cx="822.872" cy="-369.472" rx="4.00001" ry="4.00001"/>
<polygon fill="#08a7a6" stroke="#08a7a6" points="743.129,-322.262 736.878,-313.252 738.844,-319.685 734.559,-317.108 734.559,-317.108 734.559,-317.108 738.844,-319.685 732.24,-320.964 743.129,-322.262 743.129,-322.262"/>
<text text-anchor="middle" x="854.602" y="-343.8" font-family="Times,serif" font-size="14.00">away_games</text>
</g>
<!-- Team&#45;&gt;PlayerLineup -->
<g id="edge19" class="edge"><title>Team&#45;&gt;PlayerLineup</title>
<path fill="none" stroke="#69ac28" d="M889.639,-366.85C899.465,-353.431 907.747,-338.641 912.45,-323 932.094,-257.661 935.361,-179.33 934.63,-124.947"/>
<ellipse fill="none" stroke="#69ac28" cx="887.126" cy="-370.144" rx="4.00002" ry="4.00002"/>
<polygon fill="#69ac28" stroke="#69ac28" points="934.626,-124.739 938.941,-114.658 934.534,-119.74 934.442,-114.74 934.442,-114.74 934.442,-114.74 934.534,-119.74 929.943,-114.823 934.626,-124.739 934.626,-124.739"/>
</g>
<!-- Team&#45;&gt;TeamPlayer -->
<g id="edge16" class="edge"><title>Team&#45;&gt;TeamPlayer</title>
<path fill="none" stroke="#2214be" d="M904.723,-374.577C905.635,-374.046 906.543,-373.52 907.45,-373 923.661,-363.703 930.709,-366.487 945.45,-355 962.06,-342.056 977.701,-325.76 991.345,-309.492"/>
<ellipse fill="none" stroke="#2214be" cx="901.142" cy="-376.705" rx="4.00002" ry="4.00002"/>
<polygon fill="#2214be" stroke="#2214be" points="991.538,-309.257 1001.36,-304.376 994.708,-305.39 997.878,-301.523 997.878,-301.523 997.878,-301.523 994.708,-305.39 994.397,-298.67 991.538,-309.257 991.538,-309.257"/>
</g>
<!-- Transfer -->
<g id="node15" class="node"><title>Transfer</title>
<path fill="none" stroke="black" d="M942.137,-775.5C942.137,-775.5 1132.76,-775.5 1132.76,-775.5 1138.76,-775.5 1144.76,-781.5 1144.76,-787.5 1144.76,-787.5 1144.76,-891.5 1144.76,-891.5 1144.76,-897.5 1138.76,-903.5 1132.76,-903.5 1132.76,-903.5 942.137,-903.5 942.137,-903.5 936.137,-903.5 930.137,-897.5 930.137,-891.5 930.137,-891.5 930.137,-787.5 930.137,-787.5 930.137,-781.5 936.137,-775.5 942.137,-775.5"/>
<text text-anchor="middle" x="1037.45" y="-888.3" font-family="Times,serif" font-size="14.00">Transfer</text>
<polyline fill="none" stroke="black" points="930.137,-881.5 1144.76,-881.5 "/>
<text text-anchor="start" x="938.137" y="-866.3" font-family="Times,serif" font-size="14.00">id :INTEGER</text>
<text text-anchor="start" x="938.137" y="-852.3" font-family="Times,serif" font-size="14.00">primary_team_id :integer</text>
<text text-anchor="start" x="938.137" y="-838.3" font-family="Times,serif" font-size="14.00">secondary_team_id :integer</text>
<text text-anchor="start" x="938.137" y="-824.3" font-family="Times,serif" font-size="14.00">primary_team_accepted :boolean</text>
<text text-anchor="start" x="938.137" y="-810.3" font-family="Times,serif" font-size="14.00">secondary_team_accepted :boolean</text>
<text text-anchor="start" x="938.137" y="-796.3" font-family="Times,serif" font-size="14.00">created_at :datetime</text>
<text text-anchor="start" x="938.137" y="-782.3" font-family="Times,serif" font-size="14.00">updated_at :datetime</text>
</g>
<!-- TransferItem -->
<g id="node16" class="node"><title>TransferItem</title>
<path fill="none" stroke="black" d="M948.741,-539.5C948.741,-539.5 1126.16,-539.5 1126.16,-539.5 1132.16,-539.5 1138.16,-545.5 1138.16,-551.5 1138.16,-551.5 1138.16,-683.5 1138.16,-683.5 1138.16,-689.5 1132.16,-695.5 1126.16,-695.5 1126.16,-695.5 948.741,-695.5 948.741,-695.5 942.741,-695.5 936.741,-689.5 936.741,-683.5 936.741,-683.5 936.741,-551.5 936.741,-551.5 936.741,-545.5 942.741,-539.5 948.741,-539.5"/>
<text text-anchor="middle" x="1037.45" y="-680.3" font-family="Times,serif" font-size="14.00">TransferItem</text>
<polyline fill="none" stroke="black" points="936.741,-673.5 1138.16,-673.5 "/>
<text text-anchor="start" x="944.741" y="-658.3" font-family="Times,serif" font-size="14.00">id :INTEGER</text>
<text text-anchor="start" x="944.741" y="-644.3" font-family="Times,serif" font-size="14.00">transfer_id :integer</text>
<text text-anchor="start" x="944.741" y="-630.3" font-family="Times,serif" font-size="14.00">transfer_item_type :varchar(255)</text>
<text text-anchor="start" x="944.741" y="-616.3" font-family="Times,serif" font-size="14.00">team_player_id :integer</text>
<text text-anchor="start" x="944.741" y="-602.3" font-family="Times,serif" font-size="14.00">created_at :datetime</text>
<text text-anchor="start" x="944.741" y="-588.3" font-family="Times,serif" font-size="14.00">updated_at :datetime</text>
<text text-anchor="start" x="944.741" y="-574.3" font-family="Times,serif" font-size="14.00">cash_cents :integer(8)</text>
<text text-anchor="start" x="944.741" y="-560.3" font-family="Times,serif" font-size="14.00">sending_team_id :integer</text>
<text text-anchor="start" x="944.741" y="-546.3" font-family="Times,serif" font-size="14.00">receiving_team_id :integer</text>
</g>
<!-- Transfer&#45;&gt;TransferItem -->
<g id="edge20" class="edge"><title>Transfer&#45;&gt;TransferItem</title>
<path fill="none" stroke="#8b3296" d="M1037.45,-767.158C1037.45,-747.6 1037.45,-726.174 1037.45,-705.829"/>
<ellipse fill="none" stroke="#8b3296" cx="1037.45" cy="-771.457" rx="4" ry="4"/>
<polygon fill="#8b3296" stroke="#8b3296" points="1037.45,-705.624 1041.95,-695.624 1037.45,-700.624 1037.45,-695.624 1037.45,-695.624 1037.45,-695.624 1037.45,-700.624 1032.95,-695.624 1037.45,-705.624 1037.45,-705.624"/>
</g>
<!-- User -->
<g id="node17" class="node"><title>User</title>
<path fill="none" stroke="black" d="M704.403,-768.5C704.403,-768.5 900.497,-768.5 900.497,-768.5 906.497,-768.5 912.497,-774.5 912.497,-780.5 912.497,-780.5 912.497,-898.5 912.497,-898.5 912.497,-904.5 906.497,-910.5 900.497,-910.5 900.497,-910.5 704.403,-910.5 704.403,-910.5 698.403,-910.5 692.403,-904.5 692.403,-898.5 692.403,-898.5 692.403,-780.5 692.403,-780.5 692.403,-774.5 698.403,-768.5 704.403,-768.5"/>
<text text-anchor="middle" x="802.45" y="-895.3" font-family="Times,serif" font-size="14.00">User</text>
<polyline fill="none" stroke="black" points="692.403,-888.5 912.497,-888.5 "/>
<text text-anchor="start" x="700.403" y="-873.3" font-family="Times,serif" font-size="14.00">id :INTEGER</text>
<text text-anchor="start" x="700.403" y="-859.3" font-family="Times,serif" font-size="14.00">first_name :varchar(255)</text>
<text text-anchor="start" x="700.403" y="-845.3" font-family="Times,serif" font-size="14.00">last_name :varchar(255)</text>
<text text-anchor="start" x="700.403" y="-831.3" font-family="Times,serif" font-size="14.00">email :varchar(255)</text>
<text text-anchor="start" x="700.403" y="-817.3" font-family="Times,serif" font-size="14.00">password_digest :varchar(255)</text>
<text text-anchor="start" x="700.403" y="-803.3" font-family="Times,serif" font-size="14.00">created_at :datetime</text>
<text text-anchor="start" x="700.403" y="-789.3" font-family="Times,serif" font-size="14.00">updated_at :datetime</text>
<text text-anchor="start" x="700.403" y="-775.3" font-family="Times,serif" font-size="14.00">password_reset_token :varchar(255)</text>
</g>
<!-- User&#45;&gt;League -->
<g id="edge22" class="edge"><title>User&#45;&gt;League</title>
<path fill="none" stroke="#3f0e4e" d="M768.178,-760.771C757.15,-735.759 745.046,-708.305 734.436,-684.242"/>
<ellipse fill="none" stroke="#3f0e4e" cx="769.878" cy="-764.626" rx="4.00002" ry="4.00002"/>
<polygon fill="#3f0e4e" stroke="#3f0e4e" points="734.33,-684.002 734.413,-673.036 732.313,-679.427 730.296,-674.852 730.296,-674.852 730.296,-674.852 732.313,-679.427 726.178,-676.667 734.33,-684.002 734.33,-684.002"/>
</g>
<!-- User&#45;&gt;Team -->
<g id="edge21" class="edge"><title>User&#45;&gt;Team</title>
<path fill="none" stroke="#45dd2c" d="M804.797,-760.259C806.958,-688.22 810.14,-582.158 812.252,-511.748"/>
<ellipse fill="none" stroke="#45dd2c" cx="804.674" cy="-764.369" rx="4" ry="4"/>
<polygon fill="#45dd2c" stroke="#45dd2c" points="812.256,-511.622 817.054,-501.761 812.406,-506.624 812.556,-501.626 812.556,-501.626 812.556,-501.626 812.406,-506.624 808.058,-501.491 812.256,-511.622 812.256,-511.622"/>
</g>
</g>
</svg>
